<svg width="48" height="48" viewBox="0 0 48 48" fill="none" xmlns="http://www.w3.org/2000/svg">
<g clip-path="url(#clip0_2055_2893)">
<path d="M40.8 0H7.2C3.22355 0 0 3.22355 0 7.2V40.8C0 44.7765 3.22355 48 7.2 48H40.8C44.7765 48 48 44.7765 48 40.8V7.2C48 3.22355 44.7765 0 40.8 0Z" fill="#D43377"/>
<path d="M30.5625 10.125H17.4375C13.3989 10.125 10.125 13.3989 10.125 17.4375V30.5625C10.125 34.6011 13.3989 37.875 17.4375 37.875H30.5625C34.6011 37.875 37.875 34.6011 37.875 30.5625V17.4375C37.875 13.3989 34.6011 10.125 30.5625 10.125Z" stroke="white" stroke-width="2.5"/>
<path d="M24 30.4688C27.5726 30.4688 30.4688 27.5726 30.4688 24C30.4688 20.4274 27.5726 17.5312 24 17.5312C20.4274 17.5312 17.5312 20.4274 17.5312 24C17.5312 27.5726 20.4274 30.4688 24 30.4688Z" stroke="white" stroke-width="2.5"/>
<path d="M32.1562 17.625C33.14 17.625 33.9375 16.8275 33.9375 15.8438C33.9375 14.86 33.14 14.0625 32.1562 14.0625C31.1725 14.0625 30.375 14.86 30.375 15.8438C30.375 16.8275 31.1725 17.625 32.1562 17.625Z" fill="white"/>
</g>
<defs>
<clipPath id="clip0_2055_2893">
<rect width="48" height="48" fill="white"/>
</clipPath>
</defs>
</svg>
