<svg width="48" height="48" viewBox="0 0 48 48" fill="none" xmlns="http://www.w3.org/2000/svg">
<g clip-path="url(#clip0_2055_2894)">
<path d="M40.8 0H7.2C3.22355 0 0 3.22355 0 7.2V40.8C0 44.7765 3.22355 48 7.2 48H40.8C44.7765 48 48 44.7765 48 40.8V7.2C48 3.22355 44.7765 0 40.8 0Z" fill="#37AEE2"/>
<path d="M18.6562 37.875C17.625 37.875 17.7188 37.5 17.4375 36.5625L14.4375 26.7188L37.4062 13.2188" fill="#C8DAEA"/>
<path d="M18.6562 37.875C19.3125 37.875 19.6875 37.5 20.1562 37.125L24.375 33.0938L19.125 29.9062" fill="#A9C9DD"/>
<path d="M19.1248 29.9062L31.7811 39.1875C33.0936 40.0312 34.2186 39.5625 34.5936 37.875L39.7498 13.6875C40.2186 11.625 38.9061 10.6875 37.4998 11.3437L7.40605 22.9687C5.4373 23.7187 5.4373 24.9375 7.03105 25.4062L14.8123 27.8437L32.6248 16.5C33.4686 16.0312 34.2186 16.2187 33.6561 16.875" fill="#F6FBFE"/>
</g>
<defs>
<clipPath id="clip0_2055_2894">
<rect width="48" height="48" fill="white"/>
</clipPath>
</defs>
</svg>
