<svg width="24" height="24" viewBox="0 0 24 24" fill="none" xmlns="http://www.w3.org/2000/svg">
<g clip-path="url(#clip0_2055_3153)">
<path d="M11.4 0C9.47299 0.028 5.333 0.344 3.02 2.467C1.302 4.187 0.695996 6.7 0.632996 9.817C0.569996 12.933 0.487996 18.776 6.12 20.36H6.123L6.119 22.776C6.119 22.776 6.082 23.753 6.729 23.953C7.506 24.195 7.963 23.453 8.70899 22.651C9.11599 22.211 9.68099 21.567 10.106 21.071C13.956 21.397 16.918 20.655 17.256 20.546C18.032 20.294 22.432 19.73 23.148 13.889C23.888 7.869 22.788 4.059 20.808 2.343C20.212 1.793 17.802 0.043 12.433 0.02C12.433 0.02 12.038 -0.005 11.396 0.003L11.4 0ZM11.458 1.693C12.003 1.689 12.338 1.71 12.338 1.71C16.88 1.73 19.055 3.098 19.56 3.556C21.235 4.991 22.09 8.424 21.466 13.453V13.455C20.862 18.333 17.292 18.639 16.634 18.85C16.354 18.94 13.752 19.587 10.481 19.374C10.481 19.374 8.045 22.314 7.284 23.078C7.164 23.198 7.024 23.245 6.932 23.222C6.802 23.189 6.766 23.034 6.767 22.808L6.787 18.79C2.025 17.47 2.302 12.498 2.357 9.895C2.411 7.291 2.9 5.157 4.353 3.722C6.313 1.949 9.827 1.704 11.463 1.692L11.458 1.693ZM11.838 4.295C11.7605 4.29891 11.6874 4.33233 11.6337 4.38841C11.58 4.44449 11.5498 4.51898 11.5493 4.59661C11.5488 4.67424 11.578 4.74912 11.6309 4.8059C11.6839 4.86269 11.7565 4.89707 11.834 4.902C13.458 4.912 14.78 5.439 15.862 6.494C16.935 7.54 17.482 8.962 17.495 10.828C17.497 10.995 17.635 11.128 17.802 11.128C17.8819 11.1269 17.9582 11.0945 18.0144 11.0376C18.0705 10.9807 18.102 10.9039 18.102 10.824C18.088 8.84 17.484 7.228 16.286 6.06C15.096 4.9 13.593 4.307 11.838 4.295ZM7.878 4.99C7.66539 4.96056 7.449 5.00166 7.262 5.107L7.252 5.109C6.822 5.356 6.436 5.671 6.106 6.041C6.104 6.045 6.1 6.045 6.098 6.049C5.831 6.372 5.678 6.687 5.638 6.997C5.63016 7.04323 5.62781 7.09022 5.631 7.137C5.631 7.273 5.653 7.407 5.696 7.537L5.709 7.547C5.844 8.027 6.182 8.823 6.914 10.151C7.334 10.919 7.817 11.651 8.36 12.337C8.63 12.681 8.91999 13.01 9.22999 13.321L9.362 13.453C9.672 13.761 10.002 14.053 10.346 14.323C11.0326 14.8661 11.7638 15.3502 12.532 15.77C13.86 16.503 14.658 16.84 15.136 16.976L15.146 16.99C15.32 17.0469 15.5041 17.0656 15.686 17.045C15.996 17.009 16.313 16.855 16.634 16.585C16.638 16.585 16.637 16.583 16.642 16.58C17.012 16.25 17.325 15.86 17.572 15.432L17.575 15.422C17.8 14.99 17.725 14.58 17.395 14.302C17.391 14.302 16.697 13.722 16.358 13.472C15.998 13.217 15.628 12.98 15.245 12.762C14.735 12.477 14.213 12.656 13.997 12.936L13.55 13.5C13.32 13.783 12.893 13.746 12.893 13.746C9.77299 12.95 8.93799 9.791 8.93799 9.791C8.93799 9.791 8.901 9.365 9.186 9.135L9.74899 8.687C10.026 8.472 10.205 7.95 9.91899 7.439C9.7018 7.05529 9.46481 6.68312 9.20899 6.324C8.94044 5.97257 8.6637 5.62748 8.379 5.289C8.25359 5.13196 8.07501 5.02631 7.877 4.992L7.878 4.99ZM12.368 5.87C12.2876 5.86761 12.2096 5.89725 12.1511 5.95238C12.0926 6.00752 12.0584 6.08364 12.056 6.164C12.0536 6.24436 12.0832 6.32238 12.1384 6.38089C12.1935 6.4394 12.2696 6.47361 12.35 6.476C13.51 6.561 14.367 6.942 14.995 7.626C15.625 8.314 15.925 9.15 15.901 10.196C15.9054 10.2729 15.9386 10.3453 15.994 10.3988C16.0494 10.4523 16.123 10.4829 16.2 10.4846C16.277 10.4862 16.3518 10.4588 16.4094 10.4077C16.4671 10.3566 16.5034 10.2856 16.511 10.209C16.536 9.034 16.177 8.016 15.444 7.215C14.704 6.405 13.667 5.962 12.394 5.869H12.37L12.368 5.87ZM12.831 7.5C12.754 7.50113 12.6803 7.53134 12.6246 7.58458C12.569 7.63781 12.5355 7.71013 12.531 7.787C12.523 7.954 12.651 8.097 12.819 8.107C13.342 8.135 13.694 8.282 13.932 8.529C14.172 8.774 14.32 9.149 14.348 9.693C14.3583 9.7684 14.3965 9.83719 14.455 9.88579C14.5136 9.93439 14.5883 9.95926 14.6643 9.95549C14.7403 9.95172 14.8121 9.91959 14.8655 9.86543C14.919 9.81128 14.9502 9.73905 14.953 9.663C14.923 9.019 14.738 8.485 14.373 8.106C14.006 7.728 13.48 7.532 12.853 7.499H12.835L12.831 7.5Z" fill="#2C2727"/>
</g>
<defs>
<clipPath id="clip0_2055_3153">
<rect width="24" height="24" fill="white"/>
</clipPath>
</defs>
</svg>
