<svg width="48" height="48" viewBox="0 0 48 48" fill="none" xmlns="http://www.w3.org/2000/svg">
<g clip-path="url(#clip0_2055_2892)">
<path d="M40.8 0H7.2C3.22355 0 0 3.22355 0 7.2V40.8C0 44.7765 3.22355 48 7.2 48H40.8C44.7765 48 48 44.7765 48 40.8V7.2C48 3.22355 44.7765 0 40.8 0Z" fill="#665CA7"/>
<path d="M25.2187 17.4375C25.6039 17.4244 25.9877 17.4907 26.3462 17.6321C26.7047 17.7735 27.0303 17.9871 27.3029 18.2597C27.5754 18.5322 27.789 18.8578 27.9304 19.2163C28.0718 19.5748 28.1381 19.9586 28.125 20.3438M24.5625 14.9063C25.3747 14.9054 26.1786 15.0694 26.9255 15.3883C27.6724 15.7073 28.3468 16.1746 28.9078 16.7619C29.4687 17.3492 29.9047 18.0442 30.1891 18.805C30.4735 19.5657 30.6006 20.3762 30.5625 21.1875M23.7188 12.4688C24.9859 12.4393 26.2453 12.6751 27.416 13.1609C28.5866 13.6468 29.6428 14.372 30.5168 15.2901C31.3907 16.2082 32.0631 17.2988 32.4907 18.492C32.9183 19.6852 33.0918 20.9546 33 22.2188" stroke="white" stroke-width="1.5" stroke-linecap="round"/>
<path fill-rule="evenodd" clip-rule="evenodd" d="M8.90625 21.75C8.90625 13.2188 10.5 7.96875 24 7.96875C37.5 7.96875 39.0938 13.2188 39.0938 21.75C39.0938 30.2813 37.5 35.5313 24 35.5313L21.5625 35.4375L16.5938 41.3438C16.2188 41.7188 15.8438 41.4375 15.8438 41.0625V34.5938C15.2812 34.5938 12.9375 33.4688 12.2812 32.8125C10.2188 30.6563 8.90625 29.0625 8.90625 21.75ZM6.09375 21.75C6.09375 9.9375 11.25 5.15625 24 5.15625C36.75 5.15625 41.9062 9.9375 41.9062 21.75C41.9062 33.5625 36.75 38.3438 24 38.3438C23.0625 38.3438 22.3125 38.3438 21 38.1563L17.4375 42.1875C16.7812 42.9375 14.8125 43.2188 14.8125 40.9688V37.0313C14.25 37.0313 12.9375 36.4688 11.1562 35.3438C9.375 34.125 6.09375 31.2188 6.09375 21.75ZM27 25.6875C27.625 24.875 28.375 24.75 29.25 25.3125L32.625 27.8438C33.125 28.4688 32.9062 29.3438 31.9688 30.4688C31.0312 31.5938 30.1562 32.0625 29.3438 31.875C26.0312 31.125 22.8438 29.25 19.7812 26.25C16.7188 23.25 14.8125 20 14.0625 16.5C14.0625 15.25 14.8438 14.1875 16.4062 13.3125C17.2188 12.75 17.9062 12.9063 18.4688 13.7813L20.8125 17.0625C21.1875 17.8125 20.9688 18.5 20.1562 19.125C16.5 20.5313 24.9375 29.625 27 25.6875Z" fill="white"/>
</g>
<defs>
<clipPath id="clip0_2055_2892">
<rect width="48" height="48" fill="white"/>
</clipPath>
</defs>
</svg>
