<svg width="18" height="17" viewBox="0 0 18 17" fill="none" xmlns="http://www.w3.org/2000/svg">
<path d="M1 0.5H7V6.5H1V0.5Z" stroke="white" stroke-linecap="round" stroke-linejoin="round"/>
<path d="M11 0.5H17V6.5H11V0.5Z" stroke="white" stroke-linecap="round" stroke-linejoin="round"/>
<path d="M1 10.5H7V16.5H1V10.5Z" stroke="white" stroke-linecap="round" stroke-linejoin="round"/>
<path d="M11 13.5C11 14.2956 11.3161 15.0587 11.8787 15.6213C12.4413 16.1839 13.2044 16.5 14 16.5C14.7956 16.5 15.5587 16.1839 16.1213 15.6213C16.6839 15.0587 17 14.2956 17 13.5C17 12.7044 16.6839 11.9413 16.1213 11.3787C15.5587 10.8161 14.7956 10.5 14 10.5C13.2044 10.5 12.4413 10.8161 11.8787 11.3787C11.3161 11.9413 11 12.7044 11 13.5Z" stroke="white" stroke-linecap="round" stroke-linejoin="round"/>
</svg>
