<svg width="25" height="25" viewBox="0 0 25 25" fill="none" xmlns="http://www.w3.org/2000/svg">
<g clip-path="url(#clip0_6017_1056)">
<path d="M12.2136 24.5545C12.1916 22.0363 11.12 19.6399 9.25476 17.9443L6.68696 15.61C4.95263 14.0333 3.96387 11.7769 3.96387 9.43304C3.96387 4.87677 7.65737 1.13544 12.2136 1.13525C16.7699 1.13544 20.4637 4.87677 20.4637 9.43304C20.4637 11.7769 19.475 14.0333 17.7406 15.61L15.1728 17.9443C13.3077 19.6399 12.2357 22.0363 12.2136 24.5545ZM12.2136 24.5545V24.6336C12.2136 24.615 12.2137 24.5964 12.2138 24.5778M12.214 12.1344C10.8333 12.1344 9.71402 11.0152 9.71402 9.63446C9.71402 8.25375 10.8333 7.13446 12.214 7.13446C13.5948 7.13446 14.714 8.25375 14.714 9.63446C14.714 11.0152 13.5948 12.1344 12.214 12.1344Z" stroke="white"/>
</g>
<defs>
<clipPath id="clip0_6017_1056">
<rect width="24" height="24" fill="white" transform="translate(0.213867 0.634766)"/>
</clipPath>
</defs>
</svg>
