<svg width="48" height="35" viewBox="0 0 48 35" fill="none" xmlns="http://www.w3.org/2000/svg">
<path d="M14.002 10.0001H33.002M33.002 0.00012207V8.00012C33.002 13.6163 33.6458 16.6577 35.4496 20.2229C36.3876 22.0769 37.9242 24.0001 40.002 24.0001M15.002 10.0001C14.8056 14.8983 14.1803 17.2347 12.5851 20.2411C11.6112 22.0763 10.0797 24.0001 8.00203 24.0001M11.002 34.0001C5.47911 34.0001 1.00195 29.5229 1.00195 24.0001C1.00195 18.4773 5.47911 14.0001 11.002 14.0001C16.5248 14.0001 21.002 18.4773 21.002 24.0001C21.002 29.5229 16.5248 34.0001 11.002 34.0001ZM37.002 34.0001C31.4792 34.0001 27.002 29.5229 27.002 24.0001C27.002 18.4773 31.4792 14.0001 37.002 14.0001C42.5248 14.0001 47.002 18.4773 47.002 24.0001C47.002 29.5229 42.5248 34.0001 37.002 34.0001Z" stroke="url(#paint0_linear_6001_155)" stroke-width="2"/>
<defs>
<linearGradient id="paint0_linear_6001_155" x1="43.1686" y1="7.43762" x2="9.63733" y2="37.8534" gradientUnits="userSpaceOnUse">
<stop offset="0.202171" stop-color="#F01B74"/>
<stop offset="1" stop-color="#FF6064"/>
</linearGradient>
</defs>
</svg>
