<svg width="48" height="48" viewBox="0 0 48 48" fill="none" xmlns="http://www.w3.org/2000/svg">
<g clip-path="url(#clip0_6001_249)">
<path d="M29.002 13.0001V7.00012H1.00195V40.0001H7.00195M29.002 13.0001H37.002C37.6226 17.9649 40.7972 22.2425 45.3694 24.2745L47.002 25.0001V34.0001C47.002 37.3139 44.3158 40.0001 41.002 40.0001M29.002 13.0001V26.0001H47.002M7.00195 40.0001C7.00195 42.7615 9.24053 45.0001 12.002 45.0001C14.7634 45.0001 17.002 42.7615 17.002 40.0001M7.00195 40.0001C7.00195 37.2387 9.24053 35.0001 12.002 35.0001C14.7634 35.0001 17.002 37.2387 17.002 40.0001M41.002 40.0001C41.002 42.7615 38.7634 45.0001 36.002 45.0001C33.2406 45.0001 31.002 42.7615 31.002 40.0001M41.002 40.0001C41.002 37.2387 38.7634 35.0001 36.002 35.0001C33.2406 35.0001 31.002 37.2387 31.002 40.0001M31.002 40.0001H17.002" stroke="url(#paint0_linear_6001_249)" stroke-width="2"/>
</g>
<defs>
<linearGradient id="paint0_linear_6001_249" x1="43.1686" y1="15.3126" x2="6.31988" y2="45.2192" gradientUnits="userSpaceOnUse">
<stop offset="0.202171" stop-color="#F01B74"/>
<stop offset="1" stop-color="#FF6064"/>
</linearGradient>
<clipPath id="clip0_6001_249">
<rect width="48" height="48" fill="white"/>
</clipPath>
</defs>
</svg>
