<svg width="60" height="17" viewBox="0 0 60 17" fill="none" xmlns="http://www.w3.org/2000/svg">
<path d="M0 1.06111H6.21998C7.23591 1.06111 7.98231 1.31615 8.45917 1.82625C8.93604 2.32501 9.17447 3.09015 9.17447 4.12168C9.17447 4.80181 9.0397 5.35724 8.77017 5.78799C8.50064 6.2074 8.16891 6.50213 7.77497 6.67216C8.61467 6.92154 9.18484 7.53365 9.48547 8.5085C9.58913 8.8599 9.64097 9.26798 9.64097 9.73273C9.64097 10.8436 9.40253 11.6598 8.92567 12.1812C8.4488 12.7026 7.70241 12.9633 6.68648 12.9633H0V1.06111ZM6.84198 9.22264C6.84198 8.54251 6.53098 8.20244 5.90898 8.20244H2.79899V10.5829H5.90898C6.53098 10.5829 6.84198 10.2428 6.84198 9.5627V9.22264ZM6.37548 4.46174C6.37548 3.78162 6.06448 3.44155 5.44248 3.44155H2.79899V5.822H5.44248C6.06448 5.822 6.37548 5.48193 6.37548 4.80181V4.46174Z" fill="#2C2727"/>
<path d="M16.1713 12.9633H10.5734V10.5829H11.9729V3.44155H10.5734V1.06111H16.1713V3.44155H14.7718V10.5829H16.1713V12.9633Z" fill="#2C2727"/>
<path d="M20.3686 12.9633H17.5696V1.06111H20.3686V5.73698H21.7681L24.1939 1.06111H27.1484L24.1006 6.92721L27.1328 12.9633H24.1783L21.7681 8.11743H20.3686V12.9633Z" fill="#2C2727"/>
<path d="M36.7082 12.9633H28.078V1.06111H36.7082V3.44155H30.877V5.73698H35.4642V8.11743H30.877V10.5829H36.7082V12.9633Z" fill="#2C2727"/>
<path d="M41.14 12.9973C40.5076 12.5439 40.0774 11.9091 39.8493 11.093C39.4347 11.7278 39.134 12.4419 38.9474 13.2354C38.7712 14.0402 38.6831 14.6807 38.6831 15.1567C38.6831 15.6328 38.7194 15.8879 38.7919 15.9219C39.0511 15.9219 39.8338 14.947 41.14 12.9973ZM40.2536 10.3278L40.2381 10.5149C40.4143 11.3764 40.8238 12.0452 41.4665 12.5213C41.7568 12.0905 42.2129 11.4047 42.8349 10.4639C43.4569 9.51169 43.9701 8.73521 44.3744 8.13443C44.7787 7.52232 45.2763 6.78551 45.8672 5.92402C46.4581 5.05119 46.966 4.33705 47.3911 3.78162C47.8265 3.21484 48.2722 2.6594 48.7284 2.1153C49.6302 1.03843 50.3093 0.5 50.7654 0.5C50.9624 0.5 51.0608 0.6757 51.0608 1.0271C51.0608 1.60521 50.8328 2.50071 50.3766 3.7136C49.9309 4.91516 49.4074 6.0147 48.8061 7.01222C48.2152 7.99841 47.7487 8.4915 47.4066 8.4915C47.1993 8.4915 47.0956 8.26479 47.0956 7.81137C47.0956 7.34662 47.2563 6.70616 47.5777 5.89001C47.899 5.06252 48.1582 4.64878 48.3552 4.64878C48.4277 4.64878 48.464 4.69979 48.464 4.80181C48.464 4.83581 48.4588 4.86415 48.4485 4.88682C48.1997 5.22689 47.9768 5.69731 47.7798 6.29809C47.5828 6.88753 47.4844 7.34095 47.4844 7.65834C47.4844 7.9644 47.5466 8.11743 47.671 8.11743C47.9094 8.11743 48.2826 7.62434 48.7906 6.63815C49.2985 5.65197 49.7547 4.58643 50.1589 3.44155C50.5736 2.29667 50.7809 1.50319 50.7809 1.06111C50.7809 0.868403 50.7343 0.772052 50.641 0.772052C50.4337 0.772052 49.8739 1.38417 48.9616 2.6084C48.0597 3.83262 46.8313 5.56695 45.2763 7.81137C43.7316 10.0558 42.5758 11.6994 41.8086 12.7423C42.4203 13.0937 43.0682 13.2694 43.7524 13.2694C44.4366 13.2694 45.157 13.2014 45.9138 13.0654C46.6706 12.9293 47.2459 12.7933 47.6399 12.6573L48.2463 12.4362H48.293C48.3552 12.4362 48.3863 12.4589 48.3863 12.5042C48.3863 12.5836 48.35 12.6346 48.2774 12.6573C46.3077 13.3374 44.6698 13.6775 43.3636 13.6775C42.6483 13.6775 42.016 13.5188 41.4665 13.2014C39.8286 15.4005 38.823 16.5 38.4498 16.5C38.2736 16.5 38.1855 16.1543 38.1855 15.4628C38.1855 14.7713 38.341 13.9722 38.652 13.0654C38.9734 12.1699 39.2895 11.4784 39.6005 10.991C39.9219 10.4922 40.124 10.2428 40.207 10.2428C40.2381 10.2428 40.2536 10.2712 40.2536 10.3278Z" fill="#F9436B"/>
<path d="M51.9942 9.13762V9.12062C51.7869 9.23397 51.5588 9.50602 51.31 9.93677C51.0612 10.3562 50.9161 10.7189 50.8746 11.025C51.621 10.1861 51.9942 9.55703 51.9942 9.13762ZM48.6821 12.6913C49.076 12.6913 49.7135 12.2379 50.5947 11.331V11.246C50.5947 10.8946 50.7502 10.4639 51.0612 9.95377C51.3826 9.43234 51.6728 9.09795 51.932 8.95058C51.9009 8.91658 51.8594 8.89958 51.8076 8.89958C51.424 8.89958 50.7865 9.38133 49.895 10.3448C49.0138 11.3084 48.5732 12.0565 48.5732 12.5893C48.5732 12.6573 48.6095 12.6913 48.6821 12.6913ZM48.2 12.4532C48.2 11.6031 48.6458 10.7586 49.5373 9.91977C50.4392 9.06961 51.1856 8.64453 51.7765 8.64453C52.0668 8.64453 52.2119 8.78622 52.2119 9.06961C52.2119 9.87442 51.818 10.6792 51.0301 11.4841C51.0923 11.5067 51.1545 11.5181 51.2167 11.5181C51.507 11.5181 51.9268 11.3197 52.4763 10.923L52.554 11.093C51.8905 11.5804 51.3878 11.8241 51.0457 11.8241C50.9109 11.8241 50.8124 11.7958 50.7502 11.7391C50.3459 12.1018 49.9209 12.3966 49.4751 12.6233C49.0294 12.85 48.7028 12.9633 48.4955 12.9633C48.2985 12.9633 48.2 12.7933 48.2 12.4532Z" fill="#F9436B"/>
<path d="M55.9505 8.83156C55.8572 8.83156 55.7068 9.00726 55.4995 9.35866C55.3025 9.69872 55.1263 10.0615 54.9708 10.4469C55.655 9.61938 55.9971 9.09795 55.9971 8.88257C55.9971 8.84857 55.9816 8.83156 55.9505 8.83156ZM54.2555 8.47449C54.5147 8.47449 54.6443 8.51984 54.6443 8.61052C54.6443 8.64453 54.6183 8.69554 54.5665 8.76355C54.525 8.82023 54.3955 9.00159 54.1778 9.30765C53.9704 9.61371 53.7631 9.92543 53.5558 10.2428C53.3484 10.5489 53.1255 10.8833 52.8871 11.246C52.348 12.0622 52.0785 12.5439 52.0785 12.6913C52.0785 12.7026 52.0889 12.7083 52.1096 12.7083C52.6694 12.7083 53.4884 12.1075 54.5665 10.906C54.7116 10.4072 54.9501 9.88576 55.2818 9.34166C55.6239 8.78622 55.8882 8.5085 56.0748 8.5085C56.1681 8.5085 56.2148 8.55951 56.2148 8.66153C56.2148 9.05827 55.7483 9.78941 54.8153 10.8549C54.7531 11.0363 54.722 11.195 54.722 11.331C54.722 11.4557 54.7635 11.5181 54.8464 11.5181C55.1367 11.5181 55.5565 11.3197 56.106 10.923L56.1837 11.076C55.5099 11.5634 55.0226 11.8071 54.722 11.8071C54.5561 11.8071 54.4732 11.6881 54.4732 11.4501C54.4732 11.348 54.4784 11.2687 54.4888 11.212C53.3899 12.4136 52.5191 13.0143 51.8764 13.0143C51.7209 13.0143 51.6431 12.8953 51.6431 12.6573C51.6431 12.4192 51.8401 11.9488 52.234 11.246C52.6383 10.5432 53.0426 9.90843 53.4469 9.34166C53.8512 8.76355 54.0845 8.47449 54.1467 8.47449H54.2555Z" fill="#F9436B"/>
<path d="M59.4402 8.59352C59.4402 8.55951 59.4195 8.54251 59.378 8.54251C59.0981 8.54251 58.6627 8.80889 58.0718 9.34166C57.4809 9.87442 56.9678 10.4582 56.5324 11.093C57.0507 10.9116 57.6623 10.5035 58.3673 9.86876C59.0826 9.23397 59.4402 8.80889 59.4402 8.59352ZM55.8482 12.6063C55.8482 12.7536 55.9 12.8273 56.0037 12.8273C56.1281 12.8273 56.408 12.7366 56.8434 12.5553C57.2788 12.3626 57.6364 12.1755 57.9163 11.9942L59.4402 10.94L59.4558 11.161C58.3673 11.9545 57.5535 12.4589 57.0144 12.6743C56.4857 12.8897 56.1332 12.9973 55.957 12.9973C55.6667 12.9973 55.5216 12.799 55.5216 12.4022C55.5216 11.8695 55.6978 11.3367 56.0503 10.8039C56.4028 10.2712 56.8123 9.83475 57.2788 9.49469C57.7556 9.15462 58.2118 8.8769 58.6472 8.66153C59.0929 8.44616 59.4298 8.33847 59.6579 8.33847C59.886 8.33847 60 8.42349 60 8.59352C60 9.01293 59.5439 9.52302 58.6316 10.1238C57.7297 10.7246 56.9781 11.1213 56.3769 11.314C56.0244 11.8695 55.8482 12.3002 55.8482 12.6063Z" fill="#F9436B"/>
</svg>
