<svg width="60" height="22" viewBox="0 0 60 22" fill="none" xmlns="http://www.w3.org/2000/svg">
<g clip-path="url(#clip0_6352_18617)">
<path fill-rule="evenodd" clip-rule="evenodd" d="M26.2646 3.73206C26.2646 3.73206 26.2646 3.73206 27.5266 3.73206C27.9865 3.73206 28.2181 3.96531 28.2181 4.4919C28.2181 4.4919 28.2181 4.49189 28.2181 6.35792C28.2181 6.35792 28.2181 6.35792 30.6903 6.35792C30.6903 6.35792 30.6903 6.35792 30.6903 4.4919C30.6903 3.96531 30.9185 3.73206 31.4371 3.73206C31.4371 3.73206 31.4371 3.73206 32.6438 3.73206C32.6438 3.73206 32.6438 3.73206 32.6438 4.9584C32.6438 4.9584 32.6438 4.9584 32.1286 4.9584L32.0698 5.01848C32.0698 5.01848 32.0698 5.01848 32.0698 10.2702C32.0698 10.2702 32.0698 10.2702 30.6903 10.2702C30.6903 10.2702 30.6903 10.2702 30.6903 7.64435C30.6903 7.64435 30.6903 7.64435 28.2181 7.64435C28.2181 7.64435 28.2181 7.64434 28.2181 10.2702C28.2181 10.2702 28.2181 10.2702 26.8386 10.2702C26.8386 10.2702 26.8386 10.2702 26.8386 5.01848C26.8386 5.01848 26.8386 4.9584 26.7798 4.9584C26.7798 4.9584 26.7798 4.9584 26.2646 4.9584C26.2646 4.9584 26.2646 4.9584 26.2646 3.73206Z" fill="#ED1C24"/>
<path fill-rule="evenodd" clip-rule="evenodd" d="M36.2637 3.61548L36.2948 3.61901V4.96552L36.2637 4.95845C35.2299 4.95845 34.4243 5.83492 34.4243 6.94464C34.4243 8.1109 35.2299 9.04391 36.2637 9.04391L36.2948 9.03685V10.3834L36.2637 10.3869C34.4243 10.3869 32.9307 8.87074 32.9307 6.94464C32.9307 5.07508 34.4243 3.61548 36.2637 3.61548Z" fill="#ED1C24"/>
<path fill-rule="evenodd" clip-rule="evenodd" d="M36.2949 3.6189L36.9346 3.68251C38.4524 3.98645 39.5968 5.30822 39.5968 6.94452C39.5968 8.62677 38.4524 10.0015 36.9346 10.3161L36.2949 10.3832V9.03673L36.9968 8.88123C37.6745 8.56315 38.162 7.81745 38.162 6.94452C38.162 6.11046 37.6745 5.41071 36.9968 5.11384L36.2949 4.9654V3.6189Z" fill="#ED1C24"/>
<path fill-rule="evenodd" clip-rule="evenodd" d="M39.8838 3.73206C39.8838 3.73206 39.8838 3.73206 41.8096 3.73206H42.7293V4.9584H42.6429C42.5288 4.9584 42.2971 4.9584 41.8373 4.9584C41.8373 4.9584 41.8373 4.9584 41.8373 6.30137C41.8373 6.30137 41.8373 6.30137 42.228 6.30137H42.7293V7.46764H42.4354C42.2902 7.46764 42.0966 7.46764 41.8373 7.46764C41.8373 7.46764 41.8373 7.46764 41.8373 8.92724C41.8373 8.98732 41.8373 8.98732 41.8961 8.98732C41.8961 8.98732 41.8961 8.98732 42.3075 8.98732H42.7293V10.2702H42.6083C42.4009 10.2702 41.9825 10.2702 41.1492 10.2702C40.6894 10.2702 40.4612 10.037 40.4612 9.51037V4.9584C40.4612 4.9584 40.4612 4.9584 39.8838 4.9584C39.8838 4.9584 39.8838 4.9584 39.8838 3.73206Z" fill="#ED1C24"/>
<path fill-rule="evenodd" clip-rule="evenodd" d="M42.7295 3.73206H42.7572C44.0226 3.73206 44.7694 4.43182 44.7694 5.48499C44.7694 6.12467 44.4825 6.53463 44.1955 6.82796C44.7141 7.06121 45.0564 7.64434 45.0564 8.28402C45.0564 9.51037 44.1367 10.2702 42.8159 10.2702C42.8159 10.2702 42.8159 10.2702 42.7917 10.2702H42.7295V8.98732H42.8712C43.3311 8.98732 43.6215 8.69398 43.6215 8.22748C43.6215 7.76097 43.3311 7.46764 42.8712 7.46764C42.8712 7.46764 42.8712 7.46764 42.7433 7.46764H42.7295V6.30137H42.7572C43.1617 6.30137 43.3899 6.00804 43.3899 5.60161C43.3899 5.19165 43.1617 4.9584 42.7572 4.9584C42.7572 4.9584 42.7572 4.9584 42.7433 4.9584H42.7295V3.73206Z" fill="#ED1C24"/>
<path fill-rule="evenodd" clip-rule="evenodd" d="M47.7016 3.73206C47.7016 3.73206 47.7016 3.73206 48.2825 3.73206H48.3896V5.60161C48.3343 5.71824 48.2755 5.89141 48.2755 6.06812C48.2755 6.06812 48.2755 6.06812 47.8157 7.41109C47.8157 7.41109 47.8157 7.41109 48.3032 7.41109H48.3896V8.6339H48.0785C47.9021 8.6339 47.7016 8.6339 47.4734 8.6339C47.4734 8.6339 47.4734 8.6339 47.0689 9.68708C46.9548 10.0935 46.7266 10.2702 46.2667 10.2702C46.2667 10.2702 46.2667 10.2702 45.4023 10.2702C45.4023 10.2702 45.4023 10.2702 45.4023 8.98732C45.4023 8.98732 45.4023 8.98732 45.6893 8.98732C45.8069 8.98732 45.8069 8.98732 45.8622 8.92724C45.8622 8.92724 45.8622 8.92724 47.7016 3.73206Z" fill="#ED1C24"/>
<path fill-rule="evenodd" clip-rule="evenodd" d="M48.3896 3.73206H49.0812C49.0812 3.73206 49.0812 3.73206 50.9206 8.92724C50.9759 8.98732 50.9759 8.98732 51.09 8.98732C51.09 8.98732 51.09 8.98732 51.3216 8.98732C51.3216 8.98732 51.3216 8.98732 51.3216 10.2702C51.3216 10.2702 51.3216 10.2702 50.516 10.2702C50.0562 10.2702 49.828 10.0935 49.7104 9.627C49.7104 9.627 49.7104 9.627 49.3093 8.6339C49.3093 8.6339 49.3093 8.6339 48.5349 8.6339H48.3896V7.41109H48.9636C48.9636 7.41109 48.9636 7.41109 48.5072 6.06812C48.5072 5.89141 48.4484 5.71824 48.3896 5.60161V3.73206Z" fill="#ED1C24"/>
<path fill-rule="evenodd" clip-rule="evenodd" d="M26.2646 12.1362C26.2646 12.1362 26.2646 12.1362 31.2642 12.1362C31.7241 12.1362 32.011 12.3695 32.011 12.8961C32.011 12.8961 32.011 12.8961 32.011 17.3314C32.011 17.388 32.011 17.388 32.0698 17.388C32.0698 17.388 32.0698 17.388 32.5297 17.388C32.5297 17.388 32.5297 17.388 32.5297 18.6744C32.5297 18.6744 32.5297 18.6744 31.323 18.6744C30.8044 18.6744 30.5762 18.4411 30.5762 17.9145C30.5762 17.9145 30.5762 17.9145 30.5762 13.4227C30.5762 13.4227 30.5762 13.3626 30.5174 13.3626C30.5174 13.3626 30.5174 13.3626 28.2181 13.3626C28.2181 13.3626 28.2181 13.3626 28.2181 18.6744C28.2181 18.6744 28.2181 18.6744 26.8386 18.6744C26.8386 18.6744 26.8386 18.6744 26.8386 13.3626C26.8386 13.3626 26.8386 13.3626 26.2646 13.3626C26.2646 13.3626 26.2646 13.3626 26.2646 12.1362Z" fill="#ED1C24"/>
<path fill-rule="evenodd" clip-rule="evenodd" d="M36.1498 12.0197L36.1775 12.0232V13.3697L36.1498 13.3626C35.1125 13.3626 34.3104 14.2391 34.3104 15.3488C34.3104 16.5151 35.1125 17.4481 36.1498 17.4481L36.1775 17.441V18.7875L36.1498 18.7911C34.3104 18.7911 32.8721 17.2714 32.8721 15.3488C32.8721 13.4793 34.3104 12.0197 36.1498 12.0197Z" fill="#ED1C24"/>
<path fill-rule="evenodd" clip-rule="evenodd" d="M36.1777 12.0231L36.8381 12.0867C38.3836 12.3906 39.4831 13.7124 39.4831 15.3487C39.4831 17.0309 38.3836 18.4057 36.8381 18.7203L36.1777 18.7874V17.4409L36.9073 17.2854C37.5953 16.9673 38.0483 16.2216 38.0483 15.3487C38.0483 14.5146 37.5953 13.8149 36.9073 13.518L36.1777 13.3696V12.0231Z" fill="#ED1C24"/>
<path fill-rule="evenodd" clip-rule="evenodd" d="M39.7705 12.1362C39.7705 12.1362 39.7705 12.1362 41.036 12.1362C41.4958 12.1362 41.724 12.3695 41.724 12.8961C41.724 12.8961 41.724 12.8961 41.724 17.3314C41.724 17.388 41.724 17.388 41.7828 17.388C41.7828 17.388 41.7828 17.388 43.4493 17.388C43.4493 17.388 43.4493 17.388 43.4493 12.1362C43.4493 12.1362 43.4493 12.1362 44.8289 12.1362C44.8289 12.1362 44.8289 12.1362 44.8289 17.388C44.8289 17.388 44.8289 17.388 46.4954 17.388C46.5542 17.388 46.5542 17.388 46.5542 17.3314C46.5542 17.3314 46.5542 17.3314 46.5542 12.8961C46.5542 12.3695 46.7824 12.1362 47.2422 12.1362C47.2422 12.1362 47.2422 12.1362 48.5077 12.1362C48.5077 12.1362 48.5077 12.1362 48.5077 13.3626C48.5077 13.3626 48.5077 13.3626 47.989 13.3626C47.9302 13.3626 47.9302 13.4227 47.9302 13.4227C47.9302 13.4227 47.9302 13.4227 47.9302 17.9145C47.9302 18.4411 47.7021 18.6744 47.2422 18.6744C47.2422 18.6744 47.2422 18.6744 41.0913 18.6744C40.5761 18.6744 40.3445 18.4411 40.3445 17.9145C40.3445 17.9145 40.3445 17.9145 40.3445 13.4227C40.3445 13.4227 40.3445 13.3626 40.2891 13.3626C40.2891 13.3626 40.2891 13.3626 39.7705 13.3626C39.7705 13.3626 39.7705 13.3626 39.7705 12.1362Z" fill="#ED1C24"/>
<path fill-rule="evenodd" clip-rule="evenodd" d="M49.5966 12.1362C49.5966 12.1362 49.5966 12.1362 53.9081 12.1362C54.4267 12.1362 54.5996 12.3695 54.5996 12.836C54.5996 12.836 54.5996 12.836 54.5996 13.9457H53.3342C53.3342 13.9457 53.3342 13.9457 53.3342 13.4227C53.3342 13.3626 53.3342 13.3626 53.2754 13.3626C53.2754 13.3626 53.2754 13.3626 52.4732 13.3626C52.4732 13.3626 52.4732 13.3626 52.4732 18.6744C52.4732 18.6744 52.4732 18.6744 51.0902 18.6744C51.0902 18.6744 51.0902 18.6744 51.0902 13.3626C51.0902 13.3626 51.0902 13.3626 50.2881 13.3626C50.2293 13.3626 50.2293 13.3626 50.2293 13.4227C50.2293 13.4227 50.2293 13.4227 50.2293 13.9457C50.2293 13.9457 50.2293 13.9457 48.9639 13.9457C48.9639 13.9457 48.9639 13.9457 48.9639 12.836C48.9639 12.3695 49.1367 12.1362 49.5966 12.1362Z" fill="#ED1C24"/>
<path fill-rule="evenodd" clip-rule="evenodd" d="M56.3803 12.1362C56.3803 12.1362 56.3803 12.1362 56.9612 12.1362H57.0683V14.0058C57.0096 14.1224 56.9543 14.2956 56.9543 14.4723C56.9543 14.4723 56.9543 14.4723 56.4944 15.8153C56.4944 15.8153 56.4944 15.8153 56.9785 15.8153H57.0683V17.0381H56.7572C56.5808 17.0381 56.3803 17.0381 56.1486 17.0381C56.1486 17.0381 56.1486 17.0381 55.7476 18.0312C55.6335 18.4977 55.4018 18.6744 54.942 18.6744C54.942 18.6744 54.942 18.6744 54.0811 18.6744C54.0811 18.6744 54.0811 18.6744 54.0811 17.388C54.0811 17.388 54.0811 17.388 54.368 17.388C54.4856 17.388 54.4856 17.388 54.5409 17.3314C54.5409 17.3314 54.5409 17.3314 56.3803 12.1362Z" fill="#ED1C24"/>
<path fill-rule="evenodd" clip-rule="evenodd" d="M57.0684 12.1362H57.7564C57.7564 12.1362 57.7564 12.1362 59.5993 17.3314C59.6546 17.388 59.6546 17.388 59.7721 17.388H60.0003C60.0003 17.388 60.0003 17.388 60.0003 18.6744C60.0003 18.6744 60.0003 18.6744 59.1947 18.6744C58.7349 18.6744 58.5067 18.4977 58.3891 18.0312C58.3891 18.0312 58.3891 18.0312 57.9881 17.0381C57.9881 17.0381 57.9881 17.0381 57.2136 17.0381H57.0684V15.8153H57.6423C57.6423 15.8153 57.6423 15.8153 57.1825 14.4723C57.1825 14.2956 57.1271 14.1224 57.0684 14.0058V12.1362Z" fill="#ED1C24"/>
<path fill-rule="evenodd" clip-rule="evenodd" d="M17.407 6.51343C17.4727 6.49223 17.5591 6.53464 17.6456 6.65126C17.6456 6.65126 17.6456 6.65126 21.5525 10.56C21.7807 10.7933 21.7807 11.1467 21.5525 11.3199C21.5525 11.3199 21.5525 11.3199 17.6456 15.2887C17.5591 15.4053 17.4727 15.4336 17.407 15.3983C17.3413 15.3629 17.2998 15.2604 17.2998 15.112V6.76789C17.2998 6.62299 17.3413 6.53464 17.407 6.51343Z" fill="#ED1C24"/>
<path fill-rule="evenodd" clip-rule="evenodd" d="M10.7231 0H10.9997L11.266 0.113093C11.266 0.113093 11.266 0.113093 15.287 4.19855C15.4599 4.43181 15.4011 4.60851 15.1142 4.60851C15.1142 4.60851 15.1142 4.60851 13.4476 4.60851C13.1607 4.60851 12.9325 4.84177 12.9325 5.1351C12.9325 5.1351 12.9325 5.1351 12.9325 8.16739C12.9325 8.46072 12.7008 8.69398 12.3551 8.69398C12.3551 8.69398 12.3551 8.69398 9.42656 8.69398C9.13958 8.69398 8.90793 8.46072 8.90793 8.16739C8.90793 8.16739 8.90793 8.16739 8.90793 5.1351C8.90793 4.84177 8.67973 4.60851 8.3893 4.60851H6.60868C6.32171 4.60851 6.26293 4.43181 6.43581 4.19855C6.43581 4.19855 6.43581 4.19855 10.4604 0.113093L10.7231 0Z" fill="#ED1C24"/>
<path fill-rule="evenodd" clip-rule="evenodd" d="M4.42389 6.425C4.4965 6.46034 4.54145 6.56283 4.54145 6.71127V15.2285C4.54145 15.377 4.4965 15.4653 4.42389 15.4936C4.35474 15.5219 4.25447 15.4936 4.13692 15.4052C4.13692 15.4052 4.13692 15.4052 0.171147 11.3198C-0.057049 11.1466 -0.057049 10.7932 0.171147 10.5599C0.171147 10.5599 0.171147 10.5599 4.13692 6.53456C4.25447 6.41793 4.35474 6.38966 4.42389 6.425Z" fill="#ED1C24"/>
<path fill-rule="evenodd" clip-rule="evenodd" d="M9.42677 13.1293C9.42677 13.1293 9.42678 13.1293 12.3553 13.1293C12.701 13.1293 12.9327 13.3625 12.9327 13.6559C12.9327 13.6559 12.9327 13.6559 12.9327 16.8649C12.9327 17.2147 13.1609 17.448 13.4479 17.448H15.0003C15.2873 17.448 15.4014 17.6212 15.1732 17.7979C15.1732 17.7979 15.1732 17.7979 11.2662 21.8232C11.1486 21.9399 11.0069 22 10.8616 22C10.7199 22 10.5747 21.9399 10.4606 21.8232C10.4606 21.8232 10.4606 21.8232 6.55358 17.7979C6.32193 17.6212 6.43602 17.448 6.723 17.448C6.723 17.448 6.723 17.448 8.38952 17.448C8.67995 17.448 8.90815 17.2147 8.90815 16.8649C8.90815 16.8649 8.90815 16.8649 8.90815 13.6559C8.90815 13.3625 9.1398 13.1293 9.42677 13.1293Z" fill="#ED1C24"/>
</g>
<defs>
<clipPath id="clip0_6352_18617">
<rect width="60" height="22" fill="white"/>
</clipPath>
</defs>
</svg>
