<svg width="49" height="48" viewBox="0 0 49 48" fill="none" xmlns="http://www.w3.org/2000/svg">
<path d="M24.4999 10C27.7334 10 30.7024 11.1071 33.0725 12.9481L40.3468 6.00818C36.1174 2.27991 30.5812 0 24.4999 0C15.2847 0 7.29321 5.19983 3.27148 12.8197L11.3604 19.2056C13.3198 13.8387 18.4548 10 24.4999 10Z" fill="#F44336"/>
<path d="M48.2921 27.0037C48.4171 26.0204 48.5 25.0173 48.5 24C48.5 22.2843 48.3126 20.6136 47.9705 19H24.5V29H37.4724C36.423 31.7275 34.5544 34.0355 32.176 35.6389L40.2949 42.0486C44.5988 38.2709 47.5439 32.9807 48.2921 27.0037Z" fill="#2196F3"/>
<path d="M10.5 24C10.5 22.3131 10.8137 20.7032 11.3605 19.2056L3.27161 12.8197C1.50867 16.16 0.5 19.9603 0.5 24C0.5 27.9945 1.49011 31.7527 3.21643 35.0659L11.3156 28.6719C10.7969 27.2089 10.5 25.6409 10.5 24Z" fill="#FFC107"/>
<path d="M24.5004 38C18.4093 38 13.2412 34.103 11.3159 28.6719L3.2168 35.0659C7.21887 42.7469 15.24 48 24.5004 48C30.5559 48 36.0779 45.7504 40.2953 42.0486L32.1764 35.6389C29.9828 37.1178 27.3572 38 24.5004 38Z" fill="#00B060"/>
<path opacity="0.1" d="M24.5006 47.5C17.4373 47.5 11.0861 44.5857 6.5957 39.9426C10.9913 44.8756 17.3735 48 24.5006 48C31.5618 48 37.8911 44.9373 42.2769 40.0815C37.7998 44.6493 31.4968 47.5 24.5006 47.5Z" fill="black"/>
<path opacity="0.1" d="M24.5 28.5V29H37.4724L37.675 28.5H24.5Z" fill="black"/>
<path d="M48.4884 24.2941C48.49 24.1956 48.4995 24.0988 48.4995 24C48.4995 23.972 48.4951 23.9451 48.495 23.9171C48.4937 24.0431 48.4873 24.1676 48.4884 24.2941Z" fill="#E6E6E6"/>
<path opacity="0.2" d="M24.5 19V19.5H48.0711C48.0396 19.335 48.0052 19.1638 47.9705 19H24.5Z" fill="white"/>
<path d="M47.9705 19H24.5V29H37.4724C35.4551 34.2432 30.4543 38 24.5 38C16.7681 38 10.5 31.7319 10.5 24C10.5 16.2679 16.7681 10 24.5 10C27.3037 10 29.8878 10.8613 32.077 12.2814C32.4121 12.4991 32.7578 12.7036 33.0726 12.9481L40.3469 6.00818L40.1829 5.88196C35.9739 2.23413 30.5071 0 24.5 0C11.2451 0 0.5 10.7451 0.5 24C0.5 37.2548 11.2451 48 24.5 48C36.7354 48 46.8109 38.8375 48.2921 27.0037C48.4171 26.0204 48.5 25.0173 48.5 24C48.5 22.2843 48.3126 20.6136 47.9705 19Z" fill="url(#paint0_linear_6017_3758)"/>
<path opacity="0.1" d="M32.077 11.7814C29.8878 10.3613 27.3037 9.5 24.5 9.5C16.7681 9.5 10.5 15.7679 10.5 23.5C10.5 23.5844 10.5011 23.6503 10.5026 23.7344C10.6375 16.119 16.8524 10 24.5 10C27.3037 10 29.8878 10.8613 32.077 12.2814C32.4121 12.4991 32.7578 12.7036 33.0726 12.9481L40.3469 6.00818L33.0726 12.4481C32.7578 12.2036 32.4121 11.9991 32.077 11.7814Z" fill="black"/>
<path opacity="0.2" d="M24.5 0.5C30.4501 0.5 35.8658 2.69678 40.0586 6.2832L40.3469 6.00818L40.1269 5.81655C35.9179 2.16872 30.5071 0 24.5 0C11.2451 0 0.5 10.7451 0.5 24C0.5 24.0844 0.511719 24.1658 0.512573 24.25C0.648071 11.1117 11.3295 0.5 24.5 0.5Z" fill="white"/>
<defs>
<linearGradient id="paint0_linear_6017_3758" x1="0.5" y1="24" x2="48.5" y2="24" gradientUnits="userSpaceOnUse">
<stop stop-color="white" stop-opacity="0.2"/>
<stop offset="1" stop-color="white" stop-opacity="0"/>
</linearGradient>
</defs>
</svg>
