<svg width="145" height="27" viewBox="0 0 145 27" fill="none" xmlns="http://www.w3.org/2000/svg">
<path d="M6.136 10.7H11.86C12.868 10.7 13.696 10.46 14.344 9.98C14.992 9.5 15.316 8.72 15.316 7.64C15.316 7.04 15.208 6.548 14.992 6.164C14.776 5.78 14.488 5.48 14.128 5.264C13.768 5.048 13.348 4.904 12.868 4.832C12.412 4.736 11.932 4.688 11.428 4.688H6.136V10.7ZM0.484 0.295998H12.58C13.804 0.295998 14.92 0.403998 15.928 0.619998C16.936 0.835999 17.8 1.196 18.52 1.7C19.24 2.18 19.792 2.828 20.176 3.644C20.584 4.46 20.788 5.468 20.788 6.668C20.788 7.964 20.488 9.044 19.888 9.908C19.312 10.772 18.448 11.48 17.296 12.032C18.88 12.488 20.056 13.292 20.824 14.444C21.616 15.572 22.012 16.94 22.012 18.548C22.012 19.844 21.76 20.972 21.256 21.932C20.752 22.868 20.068 23.636 19.204 24.236C18.364 24.836 17.392 25.28 16.288 25.568C15.208 25.856 14.092 26 12.94 26H0.484V0.295998ZM6.136 21.608H12.184C12.736 21.608 13.264 21.56 13.768 21.464C14.272 21.344 14.716 21.164 15.1 20.924C15.484 20.66 15.784 20.312 16 19.88C16.24 19.448 16.36 18.896 16.36 18.224C16.36 16.904 15.988 15.968 15.244 15.416C14.5 14.84 13.516 14.552 12.292 14.552H6.136V21.608ZM30.5477 4.508H25.4357V0.295998H30.5477V4.508ZM25.4357 7.388H30.5477V26H25.4357V7.388ZM35.0409 0.295998H40.1529V14.084L46.5969 7.388H52.6449L45.6249 14.228L53.4369 26H47.2449L42.1329 17.684L40.1529 19.592V26H35.0409V0.295998ZM67.7728 14.696C67.5328 13.4 67.1008 12.416 66.4768 11.744C65.8768 11.072 64.9528 10.736 63.7048 10.736C62.8888 10.736 62.2048 10.88 61.6528 11.168C61.1248 11.432 60.6928 11.768 60.3568 12.176C60.0448 12.584 59.8168 13.016 59.6728 13.472C59.5528 13.928 59.4808 14.336 59.4568 14.696H67.7728ZM59.4568 17.936C59.5288 19.592 59.9488 20.792 60.7168 21.536C61.4848 22.28 62.5888 22.652 64.0288 22.652C65.0608 22.652 65.9488 22.4 66.6928 21.896C67.4368 21.368 67.8928 20.816 68.0608 20.24H72.5608C71.8408 22.472 70.7368 24.068 69.2488 25.028C67.7608 25.988 65.9608 26.468 63.8488 26.468C62.3848 26.468 61.0648 26.24 59.8888 25.784C58.7128 25.304 57.7168 24.632 56.9008 23.768C56.0848 22.904 55.4488 21.872 54.9928 20.672C54.5608 19.472 54.3448 18.152 54.3448 16.712C54.3448 15.32 54.5728 14.024 55.0288 12.824C55.4848 11.624 56.1328 10.592 56.9728 9.728C57.8128 8.84 58.8088 8.144 59.9608 7.64C61.1368 7.136 62.4328 6.884 63.8488 6.884C65.4328 6.884 66.8128 7.196 67.9888 7.82C69.1648 8.42 70.1248 9.236 70.8688 10.268C71.6368 11.3 72.1888 12.476 72.5248 13.796C72.8608 15.116 72.9808 16.496 72.8848 17.936H59.4568ZM76.2407 0.295998H77.8247V24.632H92.4047V26H76.2407V0.295998ZM92.4918 16.748C92.4918 15.428 92.6718 14.192 93.0318 13.04C93.4158 11.864 93.9678 10.832 94.6878 9.944C95.4078 9.056 96.2958 8.36 97.3518 7.856C98.4078 7.328 99.6198 7.064 100.988 7.064C102.356 7.064 103.568 7.328 104.624 7.856C105.68 8.36 106.568 9.056 107.288 9.944C108.008 10.832 108.548 11.864 108.908 13.04C109.292 14.192 109.484 15.428 109.484 16.748C109.484 18.068 109.292 19.316 108.908 20.492C108.548 21.668 108.008 22.7 107.288 23.588C106.568 24.452 105.68 25.148 104.624 25.676C103.568 26.18 102.356 26.432 100.988 26.432C99.6198 26.432 98.4078 26.18 97.3518 25.676C96.2958 25.148 95.4078 24.452 94.6878 23.588C93.9678 22.7 93.4158 21.668 93.0318 20.492C92.6718 19.316 92.4918 18.068 92.4918 16.748ZM93.8598 16.748C93.8598 17.852 94.0158 18.92 94.3278 19.952C94.6398 20.96 95.0958 21.86 95.6958 22.652C96.2958 23.444 97.0398 24.08 97.9278 24.56C98.8158 25.016 99.8358 25.244 100.988 25.244C102.14 25.244 103.16 25.016 104.048 24.56C104.936 24.08 105.68 23.444 106.28 22.652C106.88 21.86 107.336 20.96 107.648 19.952C107.96 18.92 108.116 17.852 108.116 16.748C108.116 15.644 107.96 14.588 107.648 13.58C107.336 12.548 106.88 11.636 106.28 10.844C105.68 10.052 104.936 9.428 104.048 8.972C103.16 8.492 102.14 8.252 100.988 8.252C99.8358 8.252 98.8158 8.492 97.9278 8.972C97.0398 9.428 96.2958 10.052 95.6958 10.844C95.0958 11.636 94.6398 12.548 94.3278 13.58C94.0158 14.588 93.8598 15.644 93.8598 16.748ZM119.748 26H118.056L110.604 7.496H112.188L118.884 24.416H118.956L125.22 7.496H126.732L119.748 26ZM129.228 16.928V17.144C129.228 18.224 129.372 19.256 129.66 20.24C129.948 21.224 130.368 22.088 130.92 22.832C131.496 23.576 132.204 24.164 133.044 24.596C133.908 25.028 134.904 25.244 136.032 25.244C137.88 25.244 139.344 24.764 140.424 23.804C141.504 22.82 142.248 21.464 142.656 19.736H144.024C143.616 21.896 142.728 23.552 141.36 24.704C140.016 25.856 138.228 26.432 135.996 26.432C134.628 26.432 133.428 26.192 132.396 25.712C131.388 25.208 130.536 24.536 129.84 23.696C129.168 22.832 128.664 21.824 128.328 20.672C127.992 19.496 127.824 18.236 127.824 16.892C127.824 15.596 127.992 14.36 128.328 13.184C128.688 11.984 129.216 10.94 129.912 10.052C130.608 9.14 131.472 8.42 132.504 7.892C133.56 7.34 134.796 7.064 136.212 7.064C137.508 7.064 138.648 7.304 139.632 7.784C140.64 8.264 141.48 8.924 142.152 9.764C142.824 10.58 143.328 11.54 143.664 12.644C144.024 13.724 144.204 14.888 144.204 16.136C144.204 16.256 144.192 16.4 144.168 16.568C144.168 16.712 144.168 16.832 144.168 16.928H129.228ZM142.8 15.74C142.752 14.732 142.584 13.784 142.296 12.896C142.008 11.984 141.576 11.192 141 10.52C140.448 9.824 139.764 9.272 138.948 8.864C138.156 8.456 137.244 8.252 136.212 8.252C135.108 8.252 134.136 8.468 133.296 8.9C132.456 9.308 131.748 9.86 131.172 10.556C130.596 11.228 130.152 12.02 129.84 12.932C129.528 13.844 129.336 14.78 129.264 15.74H142.8Z" fill="white"/>
</svg>
