<svg width="113" height="76" viewBox="0 0 113 76" fill="none" xmlns="http://www.w3.org/2000/svg">
<path d="M15.5888 59.1137C12.3354 56.9804 10.1221 53.9937 8.94875 50.1537C6.81542 53.1404 5.26875 56.5004 4.30875 60.2337C3.40208 64.0204 2.94875 67.0337 2.94875 69.2737C2.94875 71.5137 3.13542 72.7137 3.50875 72.8737C4.84208 72.8737 8.86875 68.287 15.5888 59.1137ZM11.0288 46.5537L10.9488 47.4337C11.8554 51.487 13.9621 54.6337 17.2688 56.8737C18.7621 54.847 21.1088 51.6204 24.3088 47.1937C27.5088 42.7137 30.1488 39.0604 32.2288 36.2337C34.3088 33.3537 36.8688 29.887 39.9088 25.8337C42.9488 21.727 45.5621 18.367 47.7488 15.7537C49.9888 13.087 52.2821 10.4737 54.6288 7.9137C59.2688 2.84704 62.7621 0.313702 65.1088 0.313702C66.1221 0.313702 66.6288 1.14037 66.6288 2.7937C66.6288 5.5137 65.4554 9.72704 63.1088 15.4337C60.8154 21.087 58.1221 26.2604 55.0288 30.9537C51.9888 35.5937 49.5888 37.9137 47.8288 37.9137C46.7621 37.9137 46.2288 36.847 46.2288 34.7137C46.2288 32.527 47.0554 29.5137 48.7088 25.6737C50.3621 21.7804 51.6954 19.8337 52.7088 19.8337C53.0821 19.8337 53.2688 20.0737 53.2688 20.5537C53.2688 20.7137 53.2421 20.847 53.1888 20.9537C51.9088 22.5537 50.7621 24.767 49.7488 27.5937C48.7354 30.367 48.2288 32.5004 48.2288 33.9937C48.2288 35.4337 48.5488 36.1537 49.1888 36.1537C50.4154 36.1537 52.3354 33.8337 54.9488 29.1937C57.5621 24.5537 59.9088 19.5404 61.9888 14.1537C64.1221 8.76704 65.1888 5.0337 65.1888 2.9537C65.1888 2.04704 64.9488 1.5937 64.4688 1.5937C63.4021 1.5937 60.5221 4.4737 55.8288 10.2337C51.1888 15.9937 44.8688 24.1537 36.8688 34.7137C28.9221 45.2737 22.9754 53.007 19.0288 57.9137C22.1754 59.567 25.5088 60.3937 29.0288 60.3937C32.5488 60.3937 36.2554 60.0737 40.1488 59.4337C44.0421 58.7937 47.0021 58.1537 49.0288 57.5137L52.1488 56.4737H52.3888C52.7088 56.4737 52.8688 56.5804 52.8688 56.7937C52.8688 57.167 52.6821 57.407 52.3088 57.5137C42.1754 60.7137 33.7488 62.3137 27.0288 62.3137C23.3488 62.3137 20.0954 61.567 17.2688 60.0737C8.84208 70.4204 3.66875 75.5937 1.74875 75.5937C0.842083 75.5937 0.38875 73.967 0.38875 70.7137C0.38875 67.4604 1.18875 63.7004 2.78875 59.4337C4.44208 55.2204 6.06875 51.967 7.66875 49.6737C9.32208 47.327 10.3621 46.1537 10.7888 46.1537C10.9488 46.1537 11.0288 46.287 11.0288 46.5537ZM71.4306 40.9537V40.8737C70.364 41.407 69.1906 42.687 67.9106 44.7137C66.6306 46.687 65.884 48.3937 65.6706 49.8337C69.5106 45.887 71.4306 42.927 71.4306 40.9537ZM54.3906 57.6737C56.4173 57.6737 59.6973 55.5404 64.2306 51.2737V50.8737C64.2306 49.2204 65.0306 47.1937 66.6306 44.7937C68.284 42.3404 69.7773 40.767 71.1106 40.0737C70.9506 39.9137 70.7373 39.8337 70.4706 39.8337C68.4973 39.8337 65.2173 42.1004 60.6306 46.6337C56.0973 51.167 53.8306 54.687 53.8306 57.1937C53.8306 57.5137 54.0173 57.6737 54.3906 57.6737ZM51.9106 56.5537C51.9106 52.5537 54.204 48.5804 58.7906 44.6337C63.4306 40.6337 67.2706 38.6337 70.3106 38.6337C71.804 38.6337 72.5506 39.3004 72.5506 40.6337C72.5506 44.4204 70.524 48.207 66.4706 51.9937C66.7906 52.1004 67.1106 52.1537 67.4306 52.1537C68.924 52.1537 71.084 51.2204 73.9106 49.3537L74.3106 50.1537C70.8973 52.447 68.3106 53.5937 66.5506 53.5937C65.8573 53.5937 65.3506 53.4604 65.0306 53.1937C62.9506 54.9004 60.764 56.287 58.4706 57.3537C56.1773 58.4204 54.4973 58.9537 53.4306 58.9537C52.4173 58.9537 51.9106 58.1537 51.9106 56.5537ZM91.7844 39.5137C91.3044 39.5137 90.531 40.3404 89.4644 41.9937C88.451 43.5937 87.5444 45.3004 86.7444 47.1137C90.2644 43.2204 92.0244 40.767 92.0244 39.7537C92.0244 39.5937 91.9444 39.5137 91.7844 39.5137ZM83.0644 37.8337C84.3977 37.8337 85.0644 38.047 85.0644 38.4737C85.0644 38.6337 84.931 38.8737 84.6644 39.1937C84.451 39.4604 83.7844 40.3137 82.6644 41.7537C81.5977 43.1937 80.531 44.6604 79.4644 46.1537C78.3977 47.5937 77.251 49.167 76.0244 50.8737C73.251 54.7137 71.8644 56.9804 71.8644 57.6737C71.8644 57.727 71.9177 57.7537 72.0244 57.7537C74.9044 57.7537 79.1177 54.927 84.6644 49.2737C85.411 46.927 86.6377 44.4737 88.3444 41.9137C90.1044 39.3004 91.4644 37.9937 92.4244 37.9937C92.9044 37.9937 93.1444 38.2337 93.1444 38.7137C93.1444 40.5804 90.7444 44.0204 85.9444 49.0337C85.6244 49.887 85.4644 50.6337 85.4644 51.2737C85.4644 51.8604 85.6777 52.1537 86.1044 52.1537C87.5977 52.1537 89.7577 51.2204 92.5844 49.3537L92.9844 50.0737C89.5177 52.367 87.011 53.5137 85.4644 53.5137C84.611 53.5137 84.1844 52.9537 84.1844 51.8337C84.1844 51.3537 84.211 50.9804 84.2644 50.7137C78.611 56.367 74.131 59.1937 70.8244 59.1937C70.0244 59.1937 69.6244 58.6337 69.6244 57.5137C69.6244 56.3937 70.6377 54.1804 72.6644 50.8737C74.7444 47.567 76.8244 44.5804 78.9044 41.9137C80.9844 39.1937 82.1844 37.8337 82.5044 37.8337H83.0644ZM109.738 38.3937C109.738 38.2337 109.631 38.1537 109.418 38.1537C107.978 38.1537 105.738 39.407 102.698 41.9137C99.6581 44.4204 97.0181 47.167 94.7781 50.1537C97.4448 49.3004 100.591 47.3804 104.218 44.3937C107.898 41.407 109.738 39.407 109.738 38.3937ZM91.2581 57.2737C91.2581 57.967 91.5248 58.3137 92.0581 58.3137C92.6981 58.3137 94.1381 57.887 96.3781 57.0337C98.6181 56.127 100.458 55.247 101.898 54.3937L109.738 49.4337L109.818 50.4737C104.218 54.207 100.031 56.5804 97.2581 57.5937C94.5381 58.607 92.7248 59.1137 91.8181 59.1137C90.3248 59.1137 89.5781 58.1804 89.5781 56.3137C89.5781 53.807 90.4848 51.3004 92.2981 48.7937C94.1115 46.287 96.2181 44.2337 98.6181 42.6337C101.071 41.0337 103.418 39.727 105.658 38.7137C107.951 37.7004 109.685 37.1937 110.858 37.1937C112.031 37.1937 112.618 37.5937 112.618 38.3937C112.618 40.367 110.271 42.767 105.578 45.5937C100.938 48.4204 97.0715 50.287 93.9781 51.1937C92.1648 53.807 91.2581 55.8337 91.2581 57.2737Z" fill="#E4E4E4"/>
</svg>
