<svg width="23.000000" height="21.000000" viewBox="0 0 23 21" fill="none" xmlns="http://www.w3.org/2000/svg" xmlns:xlink="http://www.w3.org/1999/xlink">
	<desc>
			Created with Pixso.
	</desc>
	<defs/>
	<path id="Vector" d="M11 6.5L11 5.48M16.25 0.5C19.14 0.5 21.5 2.88 21.5 5.78C21.5 7.34 20.81 8.83 19.62 9.84L13.96 14.61C12.08 16.2 11 18.54 11 21C11 18.54 9.91 16.2 8.03 14.61L2.37 9.84C1.18 8.83 0.49 7.34 0.49 5.78C0.49 2.88 2.85 0.5 5.74 0.5C8.64 0.5 11 2.85 11 5.75C11 2.85 13.35 0.5 16.25 0.5Z" stroke="#2C2727" stroke-opacity="1.000000" stroke-width="1.000000"/>
</svg>
