<svg width="193" height="70" viewBox="0 0 193 70" fill="none" xmlns="http://www.w3.org/2000/svg">
<path d="M2.93414 10.7684H22.4951C25.69 10.7684 28.0373 11.5019 29.537 12.969C31.0367 14.4034 31.7865 16.6041 31.7865 19.5708C31.7865 21.5269 31.3627 23.1244 30.515 24.3632C29.6674 25.5695 28.6242 26.4171 27.3853 26.9061C30.026 27.6234 31.8191 29.3839 32.7646 32.1876C33.0906 33.1982 33.2536 34.3719 33.2536 35.7086C33.2536 38.9035 32.5037 41.2508 31.0041 42.7505C29.5044 44.2502 27.1571 45 23.9621 45H2.93414V10.7684ZM24.4512 34.2415C24.4512 32.2854 23.4731 31.3074 21.517 31.3074H11.7366V38.1537H21.517C23.4731 38.1537 24.4512 37.1756 24.4512 35.2195V34.2415ZM22.9841 20.5488C22.9841 18.5927 22.006 17.6147 20.05 17.6147H11.7366V24.461H20.05C22.006 24.461 22.9841 23.483 22.9841 21.5269V20.5488ZM53.7906 45H36.1858V38.1537H40.587V17.6147H36.1858V10.7684H53.7906V17.6147H49.3894V38.1537H53.7906V45ZM66.9904 45H58.188V10.7684H66.9904V24.2165H71.3917L79.0204 10.7684H88.3119L78.727 27.6397L88.263 45H78.9715L71.3917 31.0628H66.9904V45ZM118.376 45H91.2353V10.7684H118.376V17.6147H100.038V24.2165H114.464V31.0628H100.038V38.1537H118.376V45Z" fill="#2C2727"/>
<path d="M133.454 45.0978C131.465 43.7937 130.112 41.9681 129.395 39.6207C128.091 41.4464 127.145 43.5003 126.558 45.7824C126.004 48.0971 125.727 49.9391 125.727 51.3084C125.727 52.6777 125.841 53.4112 126.069 53.509C126.884 53.509 129.346 50.7053 133.454 45.0978ZM130.666 37.4201L130.617 37.9581C131.171 40.4358 132.459 42.3593 134.481 43.7285C135.393 42.4897 136.828 40.5173 138.784 37.8114C140.74 35.0728 142.354 32.8396 143.625 31.1117C144.897 29.3513 146.462 27.2322 148.32 24.7544C150.178 22.2441 151.776 20.1902 153.112 18.5927C154.482 16.9627 155.883 15.3652 157.318 13.8003C160.154 10.7032 162.29 9.1546 163.724 9.1546C164.344 9.1546 164.653 9.65992 164.653 10.6706C164.653 12.3332 163.936 14.9088 162.502 18.3971C161.1 21.8529 159.453 25.0153 157.562 27.8842C155.704 30.7205 154.237 32.1387 153.161 32.1387C152.509 32.1387 152.183 31.4867 152.183 30.1826C152.183 28.8459 152.688 27.0039 153.699 24.6566C154.71 22.2767 155.525 21.0868 156.144 21.0868C156.372 21.0868 156.487 21.2335 156.487 21.5269C156.487 21.6247 156.47 21.7062 156.438 21.7714C155.655 22.7494 154.954 24.1024 154.335 25.8303C153.715 27.5256 153.406 28.8296 153.406 29.7425C153.406 30.6227 153.601 31.0628 153.993 31.0628C154.742 31.0628 155.916 29.6447 157.514 26.8083C159.111 23.972 160.545 20.9075 161.817 17.6147C163.121 14.3219 163.773 12.0398 163.773 10.7684C163.773 10.2141 163.626 9.93704 163.333 9.93704C162.681 9.93704 160.92 11.6975 158.051 15.2185C155.215 18.7395 151.352 23.7275 146.462 30.1826C141.604 36.6377 137.969 41.3649 135.556 44.3643C137.48 45.3749 139.517 45.8802 141.669 45.8802C143.821 45.8802 146.087 45.6846 148.467 45.2934C150.847 44.9022 152.656 44.511 153.895 44.1198L155.802 43.484H155.949C156.144 43.484 156.242 43.5492 156.242 43.6796C156.242 43.9078 156.128 44.0546 155.9 44.1198C149.705 46.0759 144.554 47.0539 140.447 47.0539C138.197 47.0539 136.208 46.5975 134.481 45.6846C129.329 52.0093 126.167 55.1717 124.993 55.1717C124.439 55.1717 124.162 54.1773 124.162 52.1886C124.162 50.1999 124.651 47.9015 125.629 45.2934C126.64 42.7179 127.634 40.7292 128.612 39.3273C129.623 37.8929 130.259 37.1756 130.519 37.1756C130.617 37.1756 130.666 37.2571 130.666 37.4201ZM167.589 33.997V33.9481C166.937 34.2741 166.219 35.0565 165.437 36.2954C164.654 37.5016 164.198 38.5449 164.068 39.4251C166.415 37.0126 167.589 35.2032 167.589 33.997ZM157.172 44.2176C158.411 44.2176 160.416 42.9135 163.187 40.3054V40.0609C163.187 39.0502 163.676 37.8114 164.654 36.3443C165.665 34.8446 166.578 33.8829 167.393 33.4591C167.295 33.3612 167.165 33.3123 167.002 33.3123C165.795 33.3123 163.79 34.6979 160.987 37.469C158.216 40.2402 156.83 42.3919 156.83 43.9241C156.83 44.1198 156.944 44.2176 157.172 44.2176ZM155.656 43.5329C155.656 41.0878 157.058 38.659 159.862 36.2465C162.698 33.8014 165.046 32.5788 166.904 32.5788C167.817 32.5788 168.273 32.9863 168.273 33.8014C168.273 36.1161 167.034 38.4308 164.557 40.7455C164.752 40.8107 164.948 40.8433 165.143 40.8433C166.056 40.8433 167.377 40.2728 169.105 39.1317L169.349 39.6207C167.263 41.0226 165.681 41.7235 164.605 41.7235C164.182 41.7235 163.872 41.642 163.676 41.479C162.405 42.5223 161.068 43.3699 159.666 44.022C158.264 44.674 157.238 45 156.586 45C155.966 45 155.656 44.511 155.656 43.5329ZM180.03 33.1167C179.737 33.1167 179.264 33.6221 178.612 34.6327C177.993 35.6108 177.439 36.654 176.95 37.7625C179.101 35.3825 180.177 33.8829 180.177 33.2634C180.177 33.1656 180.128 33.1167 180.03 33.1167ZM174.7 32.0898C175.515 32.0898 175.923 32.2202 175.923 32.481C175.923 32.5788 175.841 32.7255 175.678 32.9211C175.548 33.0841 175.14 33.6058 174.455 34.486C173.803 35.3662 173.151 36.2628 172.499 37.1756C171.847 38.0559 171.146 39.0176 170.397 40.0609C168.701 42.4082 167.854 43.7937 167.854 44.2176C167.854 44.2502 167.886 44.2665 167.951 44.2665C169.712 44.2665 172.287 42.5386 175.678 39.0828C176.134 37.6484 176.884 36.1487 177.928 34.5838C179.003 32.9863 179.835 32.1876 180.422 32.1876C180.715 32.1876 180.862 32.3343 180.862 32.6277C180.862 33.7688 179.395 35.8716 176.46 38.9361C176.265 39.4577 176.167 39.9142 176.167 40.3054C176.167 40.664 176.297 40.8433 176.558 40.8433C177.471 40.8433 178.792 40.2728 180.519 39.1317L180.764 39.5718C178.645 40.9737 177.113 41.6746 176.167 41.6746C175.645 41.6746 175.385 41.3323 175.385 40.6477C175.385 40.3543 175.401 40.1261 175.434 39.9631C171.978 43.4188 169.239 45.1467 167.218 45.1467C166.729 45.1467 166.484 44.8044 166.484 44.1198C166.484 43.4351 167.104 42.0822 168.343 40.0609C169.614 38.0396 170.886 36.2139 172.157 34.5838C173.429 32.9211 174.162 32.0898 174.358 32.0898H174.7ZM191.005 32.4321C191.005 32.3343 190.94 32.2854 190.81 32.2854C189.929 32.2854 188.56 33.0515 186.702 34.5838C184.843 36.1161 183.23 37.7951 181.86 39.6207C183.49 39.0991 185.414 37.9255 187.631 36.0998C189.88 34.2741 191.005 33.0515 191.005 32.4321ZM179.709 43.9731C179.709 44.3969 179.872 44.6088 180.198 44.6088C180.589 44.6088 181.469 44.348 182.838 43.8263C184.208 43.2721 185.332 42.7342 186.213 42.2126L191.005 39.1806L191.054 39.8164C187.631 42.0985 185.072 43.5492 183.376 44.1687C181.714 44.7881 180.605 45.0978 180.051 45.0978C179.138 45.0978 178.682 44.5273 178.682 43.3862C178.682 41.854 179.236 40.3217 180.344 38.7894C181.453 37.2571 182.741 36.002 184.208 35.0239C185.707 34.0459 187.142 33.2471 188.511 32.6277C189.913 32.0083 190.973 31.6986 191.69 31.6986C192.407 31.6986 192.766 31.9431 192.766 32.4321C192.766 33.6384 191.331 35.1054 188.462 36.8333C185.626 38.5612 183.262 39.7022 181.371 40.2565C180.263 41.854 179.709 43.0928 179.709 43.9731Z" fill="#F9436B"/>
</svg>
