<svg width="14" height="13" viewBox="0 0 14 13" fill="none" xmlns="http://www.w3.org/2000/svg">
<path d="M7 3.16667V6.5L9 8.5M1 6.5C1 7.28793 1.15519 8.06815 1.45672 8.7961C1.75825 9.52405 2.20021 10.1855 2.75736 10.7426C3.31451 11.2998 3.97595 11.7417 4.7039 12.0433C5.43185 12.3448 6.21207 12.5 7 12.5C7.78793 12.5 8.56815 12.3448 9.2961 12.0433C10.0241 11.7417 10.6855 11.2998 11.2426 10.7426C11.7998 10.1855 12.2417 9.52405 12.5433 8.7961C12.8448 8.06815 13 7.28793 13 6.5C13 4.9087 12.3679 3.38258 11.2426 2.25736C10.1174 1.13214 8.5913 0.5 7 0.5C5.4087 0.5 3.88258 1.13214 2.75736 2.25736C1.63214 3.38258 1 4.9087 1 6.5Z" stroke="#2C2727" stroke-linecap="round" stroke-linejoin="round"/>
</svg>
