<svg width="23" height="30" viewBox="0 0 23 30" fill="none" xmlns="http://www.w3.org/2000/svg">
<path d="M11.4535 19.1947C13.3607 19.1947 14.9069 17.5841 14.9069 15.5973C14.9069 13.6106 13.3607 12 11.4535 12C9.54616 12 8 13.6106 8 15.5973C8 17.5841 9.54616 19.1947 11.4535 19.1947Z" fill="white" fill-opacity="0.7"/>
<path d="M22.9259 10.7886C22.913 9.82284 22.732 8.86672 22.3908 7.96297C22.0949 7.20066 21.643 6.50835 21.064 5.93026C20.4849 5.35218 19.7915 4.90104 19.0279 4.60567C18.1343 4.27077 17.1902 4.08969 16.2359 4.07013C15.0072 4.0153 14.6177 4 11.4987 4C8.37978 4 7.98001 4 6.76027 4.07013C5.8064 4.08984 4.86278 4.27092 3.96957 4.60567C3.20587 4.90083 2.5123 5.3519 1.93323 5.93001C1.35416 6.50812 0.902335 7.20054 0.606675 7.96297C0.270553 8.85442 0.089562 9.79668 0.0715238 10.749C0.0166037 11.9769 0 12.3658 0 15.4796C0 18.5934 -9.51596e-09 18.9912 0.0715238 20.2102C0.0906819 21.1639 0.270768 22.1049 0.606675 22.9988C0.902831 23.761 1.35499 24.4531 1.93425 25.031C2.51352 25.6088 3.20716 26.0597 3.97085 26.3548C4.86162 26.7032 5.8054 26.8972 6.76155 26.9286C7.9915 26.9834 8.38105 27 11.5 27C14.6189 27 15.0187 27 16.2385 26.9286C17.1927 26.9098 18.1368 26.7292 19.0304 26.3943C19.7938 26.0986 20.4871 25.6474 21.0661 25.0693C21.6451 24.4913 22.0971 23.7991 22.3933 23.037C22.7292 22.1445 22.9093 21.2035 22.9285 20.2484C22.9834 19.0218 23 18.6329 23 15.5179C22.9974 12.4041 22.9974 12.0088 22.9259 10.7886ZM11.4911 21.3679C8.22907 21.3679 5.58652 18.7298 5.58652 15.4732C5.58652 12.2167 8.22907 9.5785 11.4911 9.5785C13.057 9.5785 14.5589 10.1996 15.6662 11.305C16.7735 12.4105 17.3956 13.9098 17.3956 15.4732C17.3956 17.0366 16.7735 18.5359 15.6662 19.6414C14.5589 20.7469 13.057 21.3679 11.4911 21.3679ZM17.6306 10.735C17.4498 10.7352 17.2706 10.6997 17.1035 10.6307C16.9364 10.5617 16.7846 10.4605 16.6567 10.3328C16.5288 10.2051 16.4274 10.0535 16.3582 9.88667C16.2891 9.71983 16.2536 9.54102 16.2538 9.36046C16.2538 9.18004 16.2894 9.00138 16.3585 8.83469C16.4277 8.668 16.5291 8.51654 16.6569 8.38896C16.7846 8.26138 16.9364 8.16018 17.1033 8.09114C17.2703 8.02209 17.4492 7.98656 17.63 7.98656C17.8107 7.98656 17.9896 8.02209 18.1566 8.09114C18.3236 8.16018 18.4753 8.26138 18.6031 8.38896C18.7309 8.51654 18.8322 8.668 18.9014 8.83469C18.9706 9.00138 19.0062 9.18004 19.0062 9.36046C19.0062 10.1204 18.3905 10.735 17.6306 10.735Z" fill="#FFFEFB" fill-opacity="0.7"/>
</svg>
