<svg width="23" height="25" viewBox="0 0 23 25" fill="none" xmlns="http://www.w3.org/2000/svg">
<path fill-rule="evenodd" clip-rule="evenodd" d="M17.2157 1.0294C13.5336 0.191371 9.71527 0.191371 6.03322 1.0294L5.63648 1.11877C4.60076 1.35454 3.64951 1.87804 2.8884 2.63111C2.12729 3.38419 1.58612 4.33735 1.325 5.38471C0.391666 9.12936 0.391666 13.0521 1.325 16.7967C1.57402 17.7956 2.078 18.7097 2.78584 19.4463C3.49369 20.1829 4.38023 20.7159 5.3556 20.9911L5.89981 24.299C5.91718 24.4041 5.96189 24.5025 6.02928 24.5839C6.09668 24.6654 6.18429 24.727 6.283 24.7623C6.38171 24.7976 6.4879 24.8053 6.59053 24.7846C6.69315 24.7639 6.78845 24.7155 6.86649 24.6446L10.0627 21.7335C12.4619 21.8826 14.8699 21.6872 17.2157 21.1532L17.6136 21.0638C18.6493 20.8281 19.6006 20.3046 20.3617 19.5515C21.1228 18.7984 21.664 17.8453 21.9251 16.7979C22.8583 13.0532 22.8583 9.13056 21.9251 5.38591C21.6639 4.33839 21.1225 3.38512 20.3612 2.63204C19.5999 1.87895 18.6484 1.35554 17.6124 1.11996L17.2157 1.0294ZM7.02098 5.28819C6.80347 5.25596 6.58168 5.30054 6.39251 5.4145H6.37613C5.93726 5.67666 5.54169 6.00673 5.20463 6.39519C4.92375 6.72527 4.77161 7.05892 4.73182 7.38065C4.70841 7.57131 4.7248 7.76435 4.7798 7.94666L4.80087 7.95858C5.11686 8.90352 5.52881 9.81271 6.03205 10.6683C6.68094 11.87 7.47946 12.9814 8.40781 13.975L8.4359 14.0155L8.48037 14.0489L8.50729 14.081L8.54006 14.1096C9.5193 15.0577 10.6134 15.8746 11.7959 16.5405C13.1476 17.29 13.968 17.6439 14.4607 17.7917V17.7988C14.6047 17.8441 14.7358 17.8644 14.868 17.8644C15.2876 17.8328 15.6848 17.6591 15.9962 17.3711C16.3766 17.0279 16.6984 16.6239 16.9488 16.1747V16.1663C17.1841 15.7135 17.1045 15.2869 16.7651 14.9974C16.0834 14.3909 15.3462 13.8522 14.5637 13.3887C14.0394 13.0992 13.5069 13.2743 13.2916 13.5675L12.8316 14.1585C12.5952 14.4516 12.1669 14.4111 12.1669 14.4111L12.1552 14.4183C8.95904 13.5877 8.10587 10.2929 8.10587 10.2929C8.10587 10.2929 8.06608 9.84489 8.36217 9.6161L8.93797 9.14422C9.21417 8.91544 9.4061 8.37445 9.11001 7.84061C8.6578 7.04314 8.12979 6.29281 7.53358 5.60039C7.40354 5.43744 7.22118 5.32645 7.01864 5.287L7.02098 5.28819ZM12.4209 3.85589C12.2657 3.85589 12.1168 3.91866 12.0071 4.03039C11.8973 4.14213 11.8357 4.29367 11.8357 4.45169C11.8357 4.6097 11.8973 4.76125 12.0071 4.87298C12.1168 4.98472 12.2657 5.04749 12.4209 5.04749C13.9013 5.04749 15.1302 5.53962 16.1027 6.48337C16.6024 6.99934 16.9921 7.61063 17.2473 8.28031C17.5036 8.95118 17.6206 9.66734 17.5902 10.3847C17.587 10.4629 17.5989 10.541 17.6253 10.6146C17.6517 10.6881 17.6921 10.7557 17.7442 10.8133C17.8493 10.9297 17.9956 10.9989 18.1508 11.0055C18.306 11.0121 18.4574 10.9557 18.5717 10.8487C18.6861 10.7417 18.754 10.5927 18.7605 10.4347C18.7968 9.55233 18.653 8.67186 18.338 7.84895C18.0217 7.02214 17.5421 6.27022 16.929 5.63972L16.9172 5.6278C15.7106 4.45407 14.1834 3.85589 12.4209 3.85589ZM12.3811 5.81488C12.2259 5.81488 12.077 5.87765 11.9673 5.98939C11.8576 6.10112 11.7959 6.25267 11.7959 6.41068C11.7959 6.5687 11.8576 6.72025 11.9673 6.83198C12.077 6.94371 12.2259 7.00649 12.3811 7.00649H12.401C13.4683 7.08394 14.2454 7.44619 14.7896 8.0408C15.3478 8.65328 15.6369 9.41472 15.6147 10.3561C15.6111 10.5141 15.6693 10.6671 15.7765 10.7814C15.8838 10.8957 16.0312 10.962 16.1864 10.9656C16.3416 10.9692 16.4918 10.9099 16.6041 10.8008C16.7164 10.6916 16.7814 10.5415 16.785 10.3835C16.8131 9.1478 16.4222 8.08131 15.6474 7.23051V7.22813C14.8551 6.36302 13.7679 5.90544 12.4595 5.81607L12.4396 5.81369L12.3811 5.81488ZM12.3588 7.81082C12.2805 7.80378 12.2016 7.81289 12.1268 7.83759C12.0521 7.86228 11.9829 7.90207 11.9236 7.95457C11.8643 8.00707 11.8159 8.07121 11.7814 8.14315C11.747 8.2151 11.7271 8.29338 11.723 8.37331C11.7189 8.45325 11.7307 8.53321 11.7576 8.60841C11.7846 8.68361 11.8261 8.75252 11.8798 8.81101C11.9334 8.86951 11.9981 8.91639 12.07 8.94887C12.1418 8.98135 12.2194 8.99875 12.298 9.00004C12.7872 9.02626 13.0996 9.1764 13.2963 9.37778C13.494 9.58035 13.6415 9.90566 13.6684 10.4145C13.6699 10.4944 13.6871 10.5733 13.7192 10.6463C13.7512 10.7193 13.7973 10.785 13.8548 10.8395C13.9123 10.894 13.98 10.9361 14.0538 10.9634C14.1276 10.9907 14.2061 11.0026 14.2845 10.9984C14.363 10.9941 14.4397 10.9738 14.5103 10.9387C14.5809 10.9036 14.6438 10.8544 14.6953 10.7941C14.7468 10.7337 14.7858 10.6634 14.8101 10.5873C14.8343 10.5112 14.8433 10.431 14.8364 10.3513C14.799 9.63636 14.5789 9.00481 14.1284 8.54008C13.6754 8.07536 13.0587 7.84895 12.3588 7.81082Z" fill="#FFFEFB" fill-opacity="0.7"/>
</svg>
