<svg width="24" height="23" viewBox="0 0 24 23" fill="none" xmlns="http://www.w3.org/2000/svg">
<rect x="0.5" width="23" height="23" rx="11.5" fill="#FFFEFB" fill-opacity="0.7"/>
<path d="M15.3737 6.89345C14.8724 6.31178 14.5961 5.56478 14.5963 4.7915H12.33V14.0341C12.3126 14.5343 12.1048 15.008 11.7505 15.3556C11.3961 15.7032 10.9229 15.8975 10.4305 15.8975C9.38903 15.8975 8.5236 15.0329 8.5236 13.9596C8.5236 12.6775 9.74107 11.716 10.9952 12.111V9.75567C8.46492 9.4128 6.25 11.4104 6.25 13.9596C6.25 16.4416 8.27424 18.2082 10.4232 18.2082C12.7261 18.2082 14.5963 16.3075 14.5963 13.9596V9.27118C15.5153 9.9419 16.6186 10.3018 17.75 10.2998V7.9966C17.75 7.9966 16.3712 8.06368 15.3737 6.89345Z" fill="#434343"/>
</svg>
