<svg width="23" height="23" viewBox="0 0 23 23" fill="none" xmlns="http://www.w3.org/2000/svg">
<path d="M15.2606 16.7751L17.1473 7.88058C17.2243 7.50409 17.1794 7.23456 17.0126 7.07199C16.8457 6.90941 16.6254 6.87946 16.3516 6.98214L5.26228 11.2561C5.01414 11.3503 4.84515 11.4572 4.7553 11.577C4.66546 11.6968 4.65476 11.8102 4.72321 11.9171C4.79167 12.0241 4.92857 12.1075 5.13393 12.1674L7.97042 13.053L14.5547 8.90737C14.7344 8.78757 14.8713 8.7619 14.9654 8.83036C15.0253 8.87314 15.0082 8.93731 14.9141 9.02288L9.58761 13.8359L9.38225 16.7623C9.57906 16.7623 9.77158 16.6682 9.95982 16.4799L11.346 15.1451L14.221 17.2628C14.7686 17.5709 15.1151 17.4083 15.2606 16.7751ZM23 11.5C23 13.0573 22.6962 14.5461 22.0887 15.9665C21.4812 17.3869 20.6641 18.6105 19.6373 19.6373C18.6105 20.6641 17.3869 21.4812 15.9665 22.0887C14.5461 22.6962 13.0573 23 11.5 23C9.94271 23 8.45387 22.6962 7.03348 22.0887C5.6131 21.4812 4.38951 20.6641 3.36272 19.6373C2.33594 18.6105 1.51879 17.3869 0.911272 15.9665C0.303757 14.5461 0 13.0573 0 11.5C0 9.94271 0.303757 8.45387 0.911272 7.03348C1.51879 5.6131 2.33594 4.38951 3.36272 3.36272C4.38951 2.33594 5.6131 1.51879 7.03348 0.911272C8.45387 0.303757 9.94271 0 11.5 0C13.0573 0 14.5461 0.303757 15.9665 0.911272C17.3869 1.51879 18.6105 2.33594 19.6373 3.36272C20.6641 4.38951 21.4812 5.6131 22.0887 7.03348C22.6962 8.45387 23 9.94271 23 11.5Z" fill="#FFFEFB" fill-opacity="0.7"/>
</svg>
