<svg width="24" height="23" viewBox="0 0 24 23" fill="none" xmlns="http://www.w3.org/2000/svg">
<rect x="0.5" width="23" height="23" rx="5" fill="white" fill-opacity="0.7"/>
<path d="M17.1953 16.1641H16.2188V15.5781C16.2188 15.2656 16.375 15.1094 16.6875 15.1094H16.7266C17.0391 15.1094 17.1953 15.2656 17.1953 15.5781V16.1641ZM13.4844 14.9141C13.1719 14.9141 13.0156 15.0443 13.0156 15.3047V18.0781C13.0156 18.3385 13.1719 18.4688 13.4844 18.4688C13.7969 18.4688 13.9531 18.3385 13.9531 18.0781V15.3047C13.9531 15.0443 13.7969 14.9141 13.4844 14.9141ZM19.5 13.3516V18.6641C19.5 19.3151 19.2591 19.862 18.7773 20.3047C18.2956 20.7474 17.7161 20.9688 17.0391 20.9688H6.96094C6.28385 20.9688 5.70443 20.7474 5.22266 20.3047C4.74089 19.862 4.5 19.3151 4.5 18.6641V13.3516C4.5 12.7266 4.74089 12.1862 5.22266 11.7305C5.70443 11.2747 6.28385 11.0469 6.96094 11.0469H17.0391C17.7161 11.0469 18.2956 11.2747 18.7773 11.7305C19.2591 12.1862 19.5 12.7266 19.5 13.3516ZM7.625 19.25V13.6641H8.875V12.8438L5.55469 12.8047V13.625H6.57031V19.25H7.625ZM11.375 14.4844H10.3203V18.1953C10.2682 18.3255 10.1771 18.4102 10.0469 18.4492C9.91667 18.4883 9.8125 18.4167 9.73438 18.2344V17.4922L9.69531 14.4844H8.67969V18.3906C8.73177 18.8333 8.82292 19.0938 8.95312 19.1719C9.1875 19.3281 9.48047 19.3346 9.83203 19.1914C10.1836 19.0482 10.4245 18.8594 10.5547 18.625V19.25H11.375V14.4844ZM14.6953 17.9219V15.4219C14.6953 14.9271 14.5391 14.5885 14.2266 14.4063C13.9141 14.224 13.5234 14.3151 13.0547 14.6797V12.8438H12V19.2109H12.8594L12.9375 18.7813C13.4844 19.25 13.9206 19.3802 14.2461 19.1719C14.5716 18.9635 14.7214 18.5469 14.6953 17.9219ZM17.9766 17.5703H17.1953V18.1172C17.1953 18.4036 17.0521 18.5469 16.7656 18.5469H16.6094C16.3229 18.5469 16.1797 18.4036 16.1797 18.1172V16.9844H17.9766V16.3203C17.9766 15.6432 17.9635 15.2135 17.9375 15.0313C17.8594 14.6146 17.5794 14.3542 17.0977 14.25C16.6159 14.1458 16.2188 14.2109 15.9062 14.4453C15.6979 14.6276 15.5547 14.8229 15.4766 15.0313C15.3984 15.2917 15.3594 15.6432 15.3594 16.0859V17.5703C15.3594 18.5339 15.724 19.0938 16.4531 19.25C17.0781 19.3802 17.5339 19.1719 17.8203 18.625C18.0026 18.3385 18.0547 17.987 17.9766 17.5703ZM13.9531 9.52344C14.0052 9.65365 14.0964 9.75781 14.2266 9.83594C14.3307 9.91406 14.474 9.95313 14.6562 9.95313C14.8125 9.95313 14.9427 9.91406 15.0469 9.83594C15.151 9.75781 15.2422 9.64063 15.3203 9.48438V9.875H16.4922V4.91406H15.5547V8.78125C15.5547 9.04167 15.4245 9.17188 15.1641 9.17188C14.9297 9.17188 14.8125 9.04167 14.8125 8.78125V4.91406H13.8359V8.27344C13.8359 8.74219 13.849 9.02865 13.875 9.13281C13.875 9.23698 13.901 9.36719 13.9531 9.52344ZM10.4375 6.75C10.4375 6.28125 10.4766 5.90365 10.5547 5.61719C10.6328 5.38281 10.776 5.17448 10.9844 4.99219C11.1927 4.83594 11.4531 4.75781 11.7656 4.75781C12.0521 4.75781 12.2865 4.8099 12.4688 4.91406C12.651 4.99219 12.7943 5.1224 12.8984 5.30469C13.0026 5.4349 13.0807 5.60417 13.1328 5.8125C13.1589 5.94271 13.1719 6.21615 13.1719 6.63281V7.88281C13.1719 8.40365 13.1589 8.74219 13.1328 8.89844C13.1068 9.08073 13.0286 9.27604 12.8984 9.48438C12.8203 9.61458 12.6771 9.75781 12.4688 9.91406C12.2604 9.99219 12.0521 10.0313 11.8438 10.0313C11.5833 10.0313 11.349 9.99219 11.1406 9.91406C10.9583 9.83594 10.8151 9.71875 10.7109 9.5625C10.6068 9.35417 10.5417 9.17188 10.5156 9.01563C10.4635 8.75521 10.4375 8.42969 10.4375 8.03906V6.75ZM11.3359 8.70313C11.3359 8.83333 11.3815 8.95052 11.4727 9.05469C11.5638 9.15885 11.6745 9.21094 11.8047 9.21094C12.1172 9.21094 12.2734 9.04167 12.2734 8.70313V6.08594C12.2734 5.7474 12.1172 5.57813 11.8047 5.57813C11.4922 5.57813 11.3359 5.7474 11.3359 6.08594V8.70313ZM8.13281 10.0313H9.22656V6.24219L10.5156 3H9.34375L8.64062 5.42188L7.9375 3H6.76562L8.13281 6.24219V10.0313Z" fill="#434343"/>
</svg>
