<svg width="60" height="60" viewBox="0 0 60 60" fill="none" xmlns="http://www.w3.org/2000/svg">
<g clip-path="url(#clip0_4561_1424)">
<path d="M12.5 33.75H47.5M30 33.75V60M16.25 27.5V16.2501L13.3196 16.2501C9.8949 16.25 6.90517 18.5699 6.05455 21.8872L1.25 40.625V41.25H18.75V45C18.75 48.75 18.75 51.25 20.625 55C20.625 55 22.5 58.75 25 58.75M43.75 27.5V16.2501L46.6805 16.2501C50.105 16.25 53.0947 18.5699 53.9455 21.8872L58.75 40.625V41.25H41.25V45C41.25 48.75 41.25 51.25 39.375 55C39.375 55 37.5 58.75 35 58.75M15.875 11.25C15.875 11.25 11.875 8.75 11.875 5.625C11.875 3.20875 13.8338 1.25 16.25 1.25C18.6662 1.25 20.6142 3.20875 20.6142 5.625C20.6142 8.75 16.625 11.25 16.625 11.25H15.875ZM44.125 11.25C44.125 11.25 48.125 8.75 48.125 5.625C48.125 3.20875 46.1662 1.25 43.75 1.25C41.3338 1.25 39.3858 3.20875 39.3858 5.625C39.3858 8.75 43.375 11.25 43.375 11.25H44.125Z" stroke="url(#paint0_linear_4561_1424)" stroke-width="3"/>
</g>
<defs>
<linearGradient id="paint0_linear_4561_1424" x1="53.9583" y1="14.1016" x2="0.552748" y2="49.1458" gradientUnits="userSpaceOnUse">
<stop offset="0.202171" stop-color="#F01B74"/>
<stop offset="1" stop-color="#FF6064"/>
</linearGradient>
<clipPath id="clip0_4561_1424">
<rect width="60" height="60" fill="white"/>
</clipPath>
</defs>
</svg>
