<svg width="60" height="60" viewBox="0 0 60 60" fill="none" xmlns="http://www.w3.org/2000/svg">
<path d="M26.2498 3.75L25.797 5.10853C25.351 6.44635 24.7485 7.7154 24.0081 8.89235C22.004 12.0784 18.4772 14.1145 14.716 14.2572C13.3265 14.3099 11.9261 14.1972 10.5446 13.9145L9.1416 13.6274L5.3916 20.1226L6.3417 21.194C7.27733 22.2491 8.07513 23.4055 8.72423 24.6352C10.4813 27.9637 10.4813 32.0362 8.72423 35.3647C8.07513 36.5945 7.27733 37.7507 6.3417 38.806L5.3916 39.8775L9.1416 46.3725L10.5446 46.0855C11.9261 45.8028 13.3264 45.69 14.7159 45.7428C18.4772 45.8855 22.0039 47.9215 24.0081 51.1075C24.7485 52.2845 25.351 53.5538 25.797 54.8915L26.2498 56.25H33.7498L34.2025 54.8915C34.6485 53.5535 35.251 52.2845 35.9915 51.1075C37.9958 47.9215 41.5225 45.8853 45.2838 45.7428C46.6733 45.69 48.0735 45.8028 49.455 46.0855L50.858 46.3725L54.608 39.8773L53.6578 38.806C52.7223 37.7507 51.9245 36.5945 51.2753 35.365C49.5183 32.0362 49.5183 27.9638 51.2753 24.6352C51.9245 23.4055 52.7223 22.2492 53.6578 21.1941L54.608 20.1226L50.858 13.6274L49.455 13.9145C48.0735 14.1972 46.673 14.3099 45.2835 14.2572C41.5223 14.1146 37.9958 12.0784 35.9915 8.89242C35.251 7.71545 34.6485 6.44638 34.2025 5.10853L33.7498 3.75H26.2498Z" stroke="url(#paint0_linear_4561_1587)" stroke-width="3"/>
<path d="M38.7557 29.9999C38.7557 34.8357 34.8357 38.7557 29.9999 38.7557C25.1642 38.7557 21.2441 34.8357 21.2441 29.9999C21.2441 25.1642 25.1642 21.2441 29.9999 21.2441C34.8357 21.2441 38.7557 25.1642 38.7557 29.9999Z" stroke="url(#paint1_linear_4561_1587)" stroke-width="3"/>
<defs>
<linearGradient id="paint0_linear_4561_1587" x1="50.5066" y1="15.2344" x2="3.63005" y2="44.6973" gradientUnits="userSpaceOnUse">
<stop offset="0.202171" stop-color="#F01B74"/>
<stop offset="1" stop-color="#FF6064"/>
</linearGradient>
<linearGradient id="paint1_linear_4561_1587" x1="37.2964" y1="25.0748" x2="21.2441" y2="35.8371" gradientUnits="userSpaceOnUse">
<stop offset="0.202171" stop-color="#F01B74"/>
<stop offset="1" stop-color="#FF6064"/>
</linearGradient>
</defs>
</svg>
