<svg width="60" height="60" viewBox="0 0 60 60" fill="none" xmlns="http://www.w3.org/2000/svg">
<path d="M16.875 16.875L26.25 26.25M16.875 16.875L21.25 12.5V11.875L17.6517 10.3757C15.0634 9.29723 12.639 7.86117 10.4493 6.10947L7.5 3.75H6.875L3.75 6.875V7.5L6.10947 10.4493C7.86117 12.639 9.29723 15.0634 10.3757 17.6517L11.875 21.25H12.5L16.875 16.875ZM34.336 42.5C40.994 50.0755 45.625 56.25 45.625 56.25H46.25L56.25 46.25V45.625C56.25 45.625 50.0755 40.994 42.5 34.336M43.75 28.75C50.6535 28.75 56.25 23.1536 56.25 16.25C56.25 14.4723 55.879 12.7812 55.21 11.25H53.75L46.25 18.75H41.25V13.75L48.75 6.25V4.7901C47.2187 4.12112 45.5277 3.75 43.75 3.75C36.8465 3.75 31.25 9.34645 31.25 16.25C31.25 17.7446 31.5123 19.178 31.9935 20.5066L27.5 25C16.25 36.25 3.75 45.625 3.75 45.625V46.25L13.75 56.25H14.375C14.375 56.25 23.75 43.75 35 32.5L39.4935 28.0065C40.822 28.4877 42.2553 28.75 43.75 28.75Z" stroke="url(#paint0_linear_4561_2299)" stroke-width="3"/>
<defs>
<linearGradient id="paint0_linear_4561_2299" x1="51.875" y1="15.2344" x2="3.75" y2="47.5" gradientUnits="userSpaceOnUse">
<stop offset="0.202171" stop-color="#F01B74"/>
<stop offset="1" stop-color="#FF6064"/>
</linearGradient>
</defs>
</svg>
