<svg width="143" height="51" viewBox="0 0 143 51" fill="none" xmlns="http://www.w3.org/2000/svg">
<path d="M2.16 7.8H16.56C18.912 7.8 20.64 8.34 21.744 9.42C22.848 10.476 23.4 12.096 23.4 14.28C23.4 15.72 23.088 16.896 22.464 17.808C21.84 18.696 21.072 19.32 20.16 19.68C22.104 20.208 23.424 21.504 24.12 23.568C24.36 24.312 24.48 25.176 24.48 26.16C24.48 28.512 23.928 30.24 22.824 31.344C21.72 32.448 19.992 33 17.64 33H2.16V7.8ZM18 25.08C18 23.64 17.28 22.92 15.84 22.92H8.64V27.96H15.84C17.28 27.96 18 27.24 18 25.8V25.08ZM16.92 15C16.92 13.56 16.2 12.84 14.76 12.84H8.64V17.88H14.76C16.2 17.88 16.92 17.16 16.92 15.72V15ZM39.5986 33H26.6386V27.96H29.8786V12.84H26.6386V7.8H39.5986V12.84H36.3586V27.96H39.5986V33ZM49.3158 33H42.8358V7.8H49.3158V17.7H52.5558L58.1718 7.8H65.0118L57.9558 20.22L64.9758 33H58.1358L52.5558 22.74H49.3158V33ZM87.1439 33H67.1639V7.8H87.1439V12.84H73.6439V17.7H84.2639V22.74H73.6439V27.96H87.1439V33Z" fill="#2C2727"/>
<path d="M98.904 33.072C97.44 32.112 96.444 30.768 95.916 29.04C94.956 30.384 94.26 31.896 93.828 33.576C93.42 35.28 93.216 36.636 93.216 37.644C93.216 38.652 93.3 39.192 93.468 39.264C94.068 39.264 95.88 37.2 98.904 33.072ZM96.852 27.42L96.816 27.816C97.224 29.64 98.172 31.056 99.66 32.064C100.332 31.152 101.388 29.7 102.828 27.708C104.268 25.692 105.456 24.048 106.392 22.776C107.328 21.48 108.48 19.92 109.848 18.096C111.216 16.248 112.392 14.736 113.376 13.56C114.384 12.36 115.416 11.184 116.472 10.032C118.56 7.752 120.132 6.612 121.188 6.612C121.644 6.612 121.872 6.984 121.872 7.728C121.872 8.952 121.344 10.848 120.288 13.416C119.256 15.96 118.044 18.288 116.652 20.4C115.284 22.488 114.204 23.532 113.412 23.532C112.932 23.532 112.692 23.052 112.692 22.092C112.692 21.108 113.064 19.752 113.808 18.024C114.552 16.272 115.152 15.396 115.608 15.396C115.776 15.396 115.86 15.504 115.86 15.72C115.86 15.792 115.848 15.852 115.824 15.9C115.248 16.62 114.732 17.616 114.276 18.888C113.82 20.136 113.592 21.096 113.592 21.768C113.592 22.416 113.736 22.74 114.024 22.74C114.576 22.74 115.44 21.696 116.616 19.608C117.792 17.52 118.848 15.264 119.784 12.84C120.744 10.416 121.224 8.736 121.224 7.8C121.224 7.392 121.116 7.188 120.9 7.188C120.42 7.188 119.124 8.484 117.012 11.076C114.924 13.668 112.08 17.34 108.48 22.092C104.904 26.844 102.228 30.324 100.452 32.532C101.868 33.276 103.368 33.648 104.952 33.648C106.536 33.648 108.204 33.504 109.956 33.216C111.708 32.928 113.04 32.64 113.952 32.352L115.356 31.884H115.464C115.608 31.884 115.68 31.932 115.68 32.028C115.68 32.196 115.596 32.304 115.428 32.352C110.868 33.792 107.076 34.512 104.052 34.512C102.396 34.512 100.932 34.176 99.66 33.504C95.868 38.16 93.54 40.488 92.676 40.488C92.268 40.488 92.064 39.756 92.064 38.292C92.064 36.828 92.424 35.136 93.144 33.216C93.888 31.32 94.62 29.856 95.34 28.824C96.084 27.768 96.552 27.24 96.744 27.24C96.816 27.24 96.852 27.3 96.852 27.42ZM124.033 24.9V24.864C123.553 25.104 123.025 25.68 122.449 26.592C121.873 27.48 121.537 28.248 121.441 28.896C123.169 27.12 124.033 25.788 124.033 24.9ZM116.365 32.424C117.277 32.424 118.753 31.464 120.793 29.544V29.364C120.793 28.62 121.153 27.708 121.873 26.628C122.617 25.524 123.289 24.816 123.889 24.504C123.817 24.432 123.721 24.396 123.601 24.396C122.713 24.396 121.237 25.416 119.173 27.456C117.133 29.496 116.113 31.08 116.113 32.208C116.113 32.352 116.197 32.424 116.365 32.424ZM115.249 31.92C115.249 30.12 116.281 28.332 118.345 26.556C120.433 24.756 122.161 23.856 123.529 23.856C124.201 23.856 124.537 24.156 124.537 24.756C124.537 26.46 123.625 28.164 121.801 29.868C121.945 29.916 122.089 29.94 122.233 29.94C122.905 29.94 123.877 29.52 125.149 28.68L125.329 29.04C123.793 30.072 122.629 30.588 121.837 30.588C121.525 30.588 121.297 30.528 121.153 30.408C120.217 31.176 119.233 31.8 118.201 32.28C117.169 32.76 116.413 33 115.933 33C115.477 33 115.249 32.64 115.249 31.92ZM133.192 24.252C132.976 24.252 132.628 24.624 132.148 25.368C131.692 26.088 131.284 26.856 130.924 27.672C132.508 25.92 133.3 24.816 133.3 24.36C133.3 24.288 133.264 24.252 133.192 24.252ZM129.268 23.496C129.868 23.496 130.168 23.592 130.168 23.784C130.168 23.856 130.108 23.964 129.988 24.108C129.892 24.228 129.592 24.612 129.088 25.26C128.608 25.908 128.128 26.568 127.648 27.24C127.168 27.888 126.652 28.596 126.1 29.364C124.852 31.092 124.228 32.112 124.228 32.424C124.228 32.448 124.252 32.46 124.3 32.46C125.596 32.46 127.492 31.188 129.988 28.644C130.324 27.588 130.876 26.484 131.644 25.332C132.436 24.156 133.048 23.568 133.48 23.568C133.696 23.568 133.804 23.676 133.804 23.892C133.804 24.732 132.724 26.28 130.564 28.536C130.42 28.92 130.348 29.256 130.348 29.544C130.348 29.808 130.444 29.94 130.636 29.94C131.308 29.94 132.28 29.52 133.552 28.68L133.732 29.004C132.172 30.036 131.044 30.552 130.348 30.552C129.964 30.552 129.772 30.3 129.772 29.796C129.772 29.58 129.784 29.412 129.808 29.292C127.264 31.836 125.248 33.108 123.76 33.108C123.4 33.108 123.22 32.856 123.22 32.352C123.22 31.848 123.676 30.852 124.588 29.364C125.524 27.876 126.46 26.532 127.396 25.332C128.332 24.108 128.872 23.496 129.016 23.496H129.268ZM141.271 23.748C141.271 23.676 141.223 23.64 141.127 23.64C140.479 23.64 139.471 24.204 138.103 25.332C136.735 26.46 135.547 27.696 134.539 29.04C135.739 28.656 137.155 27.792 138.787 26.448C140.443 25.104 141.271 24.204 141.271 23.748ZM132.955 32.244C132.955 32.556 133.075 32.712 133.315 32.712C133.603 32.712 134.251 32.52 135.259 32.136C136.267 31.728 137.095 31.332 137.743 30.948L141.271 28.716L141.307 29.184C138.787 30.864 136.903 31.932 135.655 32.388C134.431 32.844 133.615 33.072 133.207 33.072C132.535 33.072 132.199 32.652 132.199 31.812C132.199 30.684 132.607 29.556 133.423 28.428C134.239 27.3 135.187 26.376 136.267 25.656C137.371 24.936 138.427 24.348 139.435 23.892C140.467 23.436 141.247 23.208 141.775 23.208C142.303 23.208 142.567 23.388 142.567 23.748C142.567 24.636 141.511 25.716 139.399 26.988C137.311 28.26 135.571 29.1 134.179 29.508C133.363 30.684 132.955 31.596 132.955 32.244Z" fill="#F9436B"/>
</svg>
