<svg width="142" height="51" viewBox="0 0 142 51" fill="none" xmlns="http://www.w3.org/2000/svg">
<path d="M2.16 7.8H16.56C18.912 7.8 20.64 8.34 21.744 9.42C22.848 10.476 23.4 12.096 23.4 14.28C23.4 15.72 23.088 16.896 22.464 17.808C21.84 18.696 21.072 19.32 20.16 19.68C22.104 20.208 23.424 21.504 24.12 23.568C24.36 24.312 24.48 25.176 24.48 26.16C24.48 28.512 23.928 30.24 22.824 31.344C21.72 32.448 19.992 33 17.64 33H2.16V7.8ZM18 25.08C18 23.64 17.28 22.92 15.84 22.92H8.64V27.96H15.84C17.28 27.96 18 27.24 18 25.8V25.08ZM16.92 15C16.92 13.56 16.2 12.84 14.76 12.84H8.64V17.88H14.76C16.2 17.88 16.92 17.16 16.92 15.72V15ZM39.5986 33H26.6386V27.96H29.8786V12.84H26.6386V7.8H39.5986V12.84H36.3586V27.96H39.5986V33ZM49.3158 33H42.8358V7.8H49.3158V17.7H52.5558L58.1718 7.8H65.0118L57.9558 20.22L64.9758 33H58.1358L52.5558 22.74H49.3158V33ZM87.1439 33H67.1639V7.8H87.1439V12.84H73.6439V17.7H84.2639V22.74H73.6439V27.96H87.1439V33Z" fill="white"/>
<path d="M97.904 33.072C96.44 32.112 95.444 30.768 94.916 29.04C93.956 30.384 93.26 31.896 92.828 33.576C92.42 35.28 92.216 36.636 92.216 37.644C92.216 38.652 92.3 39.192 92.468 39.264C93.068 39.264 94.88 37.2 97.904 33.072ZM95.852 27.42L95.816 27.816C96.224 29.64 97.172 31.056 98.66 32.064C99.332 31.152 100.388 29.7 101.828 27.708C103.268 25.692 104.456 24.048 105.392 22.776C106.328 21.48 107.48 19.92 108.848 18.096C110.216 16.248 111.392 14.736 112.376 13.56C113.384 12.36 114.416 11.184 115.472 10.032C117.56 7.752 119.132 6.612 120.188 6.612C120.644 6.612 120.872 6.984 120.872 7.728C120.872 8.952 120.344 10.848 119.288 13.416C118.256 15.96 117.044 18.288 115.652 20.4C114.284 22.488 113.204 23.532 112.412 23.532C111.932 23.532 111.692 23.052 111.692 22.092C111.692 21.108 112.064 19.752 112.808 18.024C113.552 16.272 114.152 15.396 114.608 15.396C114.776 15.396 114.86 15.504 114.86 15.72C114.86 15.792 114.848 15.852 114.824 15.9C114.248 16.62 113.732 17.616 113.276 18.888C112.82 20.136 112.592 21.096 112.592 21.768C112.592 22.416 112.736 22.74 113.024 22.74C113.576 22.74 114.44 21.696 115.616 19.608C116.792 17.52 117.848 15.264 118.784 12.84C119.744 10.416 120.224 8.736 120.224 7.8C120.224 7.392 120.116 7.188 119.9 7.188C119.42 7.188 118.124 8.484 116.012 11.076C113.924 13.668 111.08 17.34 107.48 22.092C103.904 26.844 101.228 30.324 99.452 32.532C100.868 33.276 102.368 33.648 103.952 33.648C105.536 33.648 107.204 33.504 108.956 33.216C110.708 32.928 112.04 32.64 112.952 32.352L114.356 31.884H114.464C114.608 31.884 114.68 31.932 114.68 32.028C114.68 32.196 114.596 32.304 114.428 32.352C109.868 33.792 106.076 34.512 103.052 34.512C101.396 34.512 99.932 34.176 98.66 33.504C94.868 38.16 92.54 40.488 91.676 40.488C91.268 40.488 91.064 39.756 91.064 38.292C91.064 36.828 91.424 35.136 92.144 33.216C92.888 31.32 93.62 29.856 94.34 28.824C95.084 27.768 95.552 27.24 95.744 27.24C95.816 27.24 95.852 27.3 95.852 27.42ZM123.033 24.9V24.864C122.553 25.104 122.025 25.68 121.449 26.592C120.873 27.48 120.537 28.248 120.441 28.896C122.169 27.12 123.033 25.788 123.033 24.9ZM115.365 32.424C116.277 32.424 117.753 31.464 119.793 29.544V29.364C119.793 28.62 120.153 27.708 120.873 26.628C121.617 25.524 122.289 24.816 122.889 24.504C122.817 24.432 122.721 24.396 122.601 24.396C121.713 24.396 120.237 25.416 118.173 27.456C116.133 29.496 115.113 31.08 115.113 32.208C115.113 32.352 115.197 32.424 115.365 32.424ZM114.249 31.92C114.249 30.12 115.281 28.332 117.345 26.556C119.433 24.756 121.161 23.856 122.529 23.856C123.201 23.856 123.537 24.156 123.537 24.756C123.537 26.46 122.625 28.164 120.801 29.868C120.945 29.916 121.089 29.94 121.233 29.94C121.905 29.94 122.877 29.52 124.149 28.68L124.329 29.04C122.793 30.072 121.629 30.588 120.837 30.588C120.525 30.588 120.297 30.528 120.153 30.408C119.217 31.176 118.233 31.8 117.201 32.28C116.169 32.76 115.413 33 114.933 33C114.477 33 114.249 32.64 114.249 31.92ZM132.192 24.252C131.976 24.252 131.628 24.624 131.148 25.368C130.692 26.088 130.284 26.856 129.924 27.672C131.508 25.92 132.3 24.816 132.3 24.36C132.3 24.288 132.264 24.252 132.192 24.252ZM128.268 23.496C128.868 23.496 129.168 23.592 129.168 23.784C129.168 23.856 129.108 23.964 128.988 24.108C128.892 24.228 128.592 24.612 128.088 25.26C127.608 25.908 127.128 26.568 126.648 27.24C126.168 27.888 125.652 28.596 125.1 29.364C123.852 31.092 123.228 32.112 123.228 32.424C123.228 32.448 123.252 32.46 123.3 32.46C124.596 32.46 126.492 31.188 128.988 28.644C129.324 27.588 129.876 26.484 130.644 25.332C131.436 24.156 132.048 23.568 132.48 23.568C132.696 23.568 132.804 23.676 132.804 23.892C132.804 24.732 131.724 26.28 129.564 28.536C129.42 28.92 129.348 29.256 129.348 29.544C129.348 29.808 129.444 29.94 129.636 29.94C130.308 29.94 131.28 29.52 132.552 28.68L132.732 29.004C131.172 30.036 130.044 30.552 129.348 30.552C128.964 30.552 128.772 30.3 128.772 29.796C128.772 29.58 128.784 29.412 128.808 29.292C126.264 31.836 124.248 33.108 122.76 33.108C122.4 33.108 122.22 32.856 122.22 32.352C122.22 31.848 122.676 30.852 123.588 29.364C124.524 27.876 125.46 26.532 126.396 25.332C127.332 24.108 127.872 23.496 128.016 23.496H128.268ZM140.271 23.748C140.271 23.676 140.223 23.64 140.127 23.64C139.479 23.64 138.471 24.204 137.103 25.332C135.735 26.46 134.547 27.696 133.539 29.04C134.739 28.656 136.155 27.792 137.787 26.448C139.443 25.104 140.271 24.204 140.271 23.748ZM131.955 32.244C131.955 32.556 132.075 32.712 132.315 32.712C132.603 32.712 133.251 32.52 134.259 32.136C135.267 31.728 136.095 31.332 136.743 30.948L140.271 28.716L140.307 29.184C137.787 30.864 135.903 31.932 134.655 32.388C133.431 32.844 132.615 33.072 132.207 33.072C131.535 33.072 131.199 32.652 131.199 31.812C131.199 30.684 131.607 29.556 132.423 28.428C133.239 27.3 134.187 26.376 135.267 25.656C136.371 24.936 137.427 24.348 138.435 23.892C139.467 23.436 140.247 23.208 140.775 23.208C141.303 23.208 141.567 23.388 141.567 23.748C141.567 24.636 140.511 25.716 138.399 26.988C136.311 28.26 134.571 29.1 133.179 29.508C132.363 30.684 131.955 31.596 131.955 32.244Z" fill="#F9436B"/>
</svg>
