<svg width="55" height="55" viewBox="0 0 55 55" fill="none" xmlns="http://www.w3.org/2000/svg">
<path d="M14.125 14.125L23.5 23.5M14.125 14.125L18.5 9.75V9.125L14.9017 7.62572C12.3134 6.54722 9.88897 5.11117 7.69935 3.35947L4.75 1H4.125L1 4.125V4.75L3.35947 7.69935C5.11117 9.88897 6.54722 12.3134 7.62572 14.9017L9.125 18.5H9.75L14.125 14.125ZM31.586 39.75C38.244 47.3255 42.875 53.5 42.875 53.5H43.5L53.5 43.5V42.875C53.5 42.875 47.3255 38.244 39.75 31.586M41 26C47.9035 26 53.5 20.4036 53.5 13.5C53.5 11.7222 53.129 10.0312 52.46 8.5H51L43.5 16H38.5V11L46 3.5V2.0401C44.4688 1.37112 42.7778 1 41 1C34.0965 1 28.5 6.59645 28.5 13.5C28.5 14.9946 28.7623 16.428 29.2435 17.7566L24.75 22.25C13.5 33.5 1 42.875 1 42.875V43.5L11 53.5H11.625C11.625 53.5 21 41 32.25 29.75L36.7435 25.2565C38.072 25.7377 39.5053 26 41 26Z" stroke="black" stroke-width="2"/>
</svg>
