<svg width="80" height="22" viewBox="0 0 80 22" fill="none" xmlns="http://www.w3.org/2000/svg">
<path fill-rule="evenodd" clip-rule="evenodd" d="M67.3583 17.5985L67.1746 17.4411C66.7285 17.0606 66.6498 16.3652 67.0565 15.9191L71.8323 10.4612C72.2128 10.0151 72.9082 9.9364 73.3543 10.3431L73.5379 10.5006C73.984 10.881 74.0627 11.5764 73.656 12.0225L68.8803 17.4804C68.4999 17.9265 67.8306 17.979 67.3583 17.5985Z" fill="url(#paint0_linear_6943_23948)"/>
<path opacity="0.4" fill-rule="evenodd" clip-rule="evenodd" d="M71.1894 11.4071L71.0975 11.3021L70.3628 12.1418L70.4415 12.2336C71.7012 13.4932 71.1631 14.7658 70.8745 15.2119L70.9794 15.0938C71.15 14.897 71.4124 14.5953 71.6881 14.2673C71.9767 13.7687 72.3834 12.5879 71.1894 11.4071Z" fill="url(#paint1_linear_6943_23948)"/>
<path opacity="0.4" fill-rule="evenodd" clip-rule="evenodd" d="M72.764 13.047L72.9608 12.824C72.9739 12.7977 73.0001 12.7715 73.0132 12.7452C72.8033 12.9814 72.5803 13.2307 72.3704 13.48C72.5278 13.3094 72.659 13.1651 72.764 13.047Z" fill="url(#paint2_radial_6943_23948)"/>
<path fill-rule="evenodd" clip-rule="evenodd" d="M73.6822 10.6327L68.9065 5.17476C68.5261 4.72868 67.8307 4.64996 67.3846 5.05668L67.2009 5.21412C66.7547 5.59461 66.676 6.28997 67.0829 6.73605L71.1107 11.3018L71.2025 11.4068C72.3965 12.6007 71.9897 13.7815 71.688 14.2801C71.9241 14.0046 72.1603 13.729 72.3833 13.4798C72.5933 13.2305 72.8163 12.9812 73.0262 12.745C73.2361 12.5089 73.4329 12.2858 73.5641 12.1415C74.0233 11.6954 74.0889 11.0788 73.6822 10.6327Z" fill="url(#paint3_linear_6943_23948)"/>
<path fill-rule="evenodd" clip-rule="evenodd" d="M73.4198 17.5985L73.2361 17.4411C72.79 17.0606 72.7113 16.3652 73.118 15.9191L77.8937 10.4612C78.2742 10.0151 78.9695 9.9364 79.4156 10.3431L79.5993 10.5006C80.0454 10.8811 80.1241 11.5764 79.7174 12.0225L74.9417 17.4804C74.5612 17.9265 73.8921 17.979 73.4198 17.5985Z" fill="url(#paint4_linear_6943_23948)"/>
<path opacity="0.4" fill-rule="evenodd" clip-rule="evenodd" d="M77.3034 11.355L77.2115 11.25L76.4768 12.0897L76.5555 12.1815C77.815 13.4411 77.2771 14.7137 76.9885 15.1598L77.0934 15.0417C77.264 14.8449 77.5264 14.5431 77.8019 14.2151C78.0906 13.7166 78.4973 12.5358 77.3034 11.355Z" fill="url(#paint5_linear_6943_23948)"/>
<path opacity="0.4" fill-rule="evenodd" clip-rule="evenodd" d="M78.8121 13.047L79.0089 12.824C79.022 12.7977 79.0482 12.7715 79.0613 12.7452C78.8514 12.9814 78.6284 13.2307 78.4185 13.48C78.5759 13.3094 78.7202 13.1651 78.8121 13.047Z" fill="url(#paint6_radial_6943_23948)"/>
<path fill-rule="evenodd" clip-rule="evenodd" d="M79.7305 10.6327L74.9546 5.17476C74.5742 4.72868 73.8788 4.64996 73.4327 5.05668L73.249 5.21413C72.803 5.59461 72.7242 6.28997 73.131 6.73606L77.1588 11.3018L77.2506 11.4068C78.4447 12.6007 78.0378 13.7815 77.7361 14.2801C77.9722 14.0046 78.2084 13.729 78.4316 13.4798C78.6415 13.2305 78.8646 12.9812 79.0745 12.745C79.2844 12.5089 79.4812 12.2858 79.6124 12.1415C80.0716 11.6954 80.1372 11.0788 79.7305 10.6327Z" fill="url(#paint7_linear_6943_23948)"/>
<path fill-rule="evenodd" clip-rule="evenodd" d="M0.288641 17.5459C0.104961 17.3622 0 17.0867 0 16.7456V5.94777C0 5.59353 0.10496 5.31801 0.328001 5.09497C0.551043 4.87193 0.826564 4.76697 1.18081 4.76697C1.53505 4.76697 1.84994 4.87193 2.05986 5.09497C2.2829 5.31801 2.38786 5.59353 2.38786 5.94777V15.9059H7.54404C8.27876 15.9059 8.65924 16.2339 8.65924 16.8768C8.65924 17.5197 8.27876 17.8477 7.54404 17.8477H1.11521C0.760964 17.8477 0.485443 17.7427 0.288641 17.5459Z" fill="white"/>
<path fill-rule="evenodd" clip-rule="evenodd" d="M10.5222 17.6247C10.2992 17.4016 10.1942 17.113 10.1942 16.7456V5.93471C10.1942 5.58047 10.2992 5.30495 10.5222 5.08191C10.7453 4.85887 11.0208 4.75391 11.375 4.75391C11.7293 4.75391 12.0441 4.85887 12.2541 5.08191C12.4771 5.30495 12.5821 5.58047 12.5821 5.93471V16.7456C12.5821 17.0999 12.4771 17.4016 12.2541 17.6247C12.031 17.8477 11.7424 17.9527 11.375 17.9527C11.0339 17.9527 10.7453 17.8477 10.5222 17.6247Z" fill="white"/>
<path fill-rule="evenodd" clip-rule="evenodd" d="M26.2271 20.3013C26.2271 20.0783 26.1484 19.8683 26.0172 19.6453L25.3612 18.6613C24.9807 18.0447 24.5215 17.6248 23.9573 17.4411C25.0463 16.9557 25.886 16.1947 26.4633 15.1451C27.0536 14.1086 27.3423 12.836 27.3423 11.3797C27.3423 10.0283 27.093 8.84748 26.5944 7.85036C26.0959 6.86636 25.3874 6.09227 24.4559 5.54123C23.5375 5.01643 22.4354 4.74091 21.189 4.74091C19.9164 4.74091 18.8274 4.99019 17.8957 5.54123C16.9773 6.09227 16.2557 6.85324 15.7572 7.85036C15.2718 8.8606 15.0094 10.0283 15.0094 11.3797C15.0094 12.7179 15.2587 13.8987 15.7572 14.9089C16.2557 15.893 16.9642 16.667 17.8957 17.2181C18.8274 17.7429 19.9164 18.0184 21.189 18.0184C21.6351 18.0184 21.9893 18.0971 22.2649 18.2283C22.5404 18.3595 22.7634 18.5695 22.934 18.8581L24.0098 20.6424C24.141 20.8393 24.3116 20.9967 24.4953 21.1017C24.692 21.2067 24.902 21.2591 25.125 21.2591C25.4137 21.2591 25.6761 21.1542 25.8991 20.9836C26.1221 20.8131 26.2271 20.5768 26.2271 20.3013ZM24.9676 11.3534C24.9676 12.8753 24.6265 14.0562 23.9573 14.8827C23.2882 15.7093 22.3567 16.116 21.1628 16.116C19.9689 16.116 19.0242 15.7093 18.3551 14.8827C17.686 14.0562 17.3449 12.9016 17.3449 11.3534C17.3449 9.80526 17.686 8.6507 18.3551 7.82414C19.0242 7.01068 19.9557 6.60396 21.1628 6.60396C22.3698 6.60396 23.2882 6.99756 23.9573 7.82414C24.6265 8.6507 24.9676 9.80526 24.9676 11.3534Z" fill="white"/>
<path fill-rule="evenodd" clip-rule="evenodd" d="M29.9006 16.7449C29.9006 17.1122 30.0056 17.4009 30.2286 17.6239C30.4254 17.847 30.7272 17.9519 31.0814 17.965C31.4488 17.965 31.7374 17.8601 31.9605 17.637C32.1835 17.4271 32.2885 17.1385 32.2885 16.758V12.7957H35.5816C36.9723 12.7957 38.0482 12.4546 38.8222 11.7461C39.5963 11.0508 39.9899 10.0668 39.9899 8.82036C39.9899 7.57394 39.5963 6.58994 38.8222 5.9077C38.0482 5.19922 36.9723 4.85809 35.5816 4.85809H31.0552C30.701 4.85809 30.4254 4.96305 30.2155 5.14674C30.0056 5.34354 29.9006 5.61906 29.9006 5.9733V16.7449ZM37.7334 8.8466C37.7334 10.2636 36.9067 10.9852 35.2798 10.9852L32.2885 10.9721V6.70802H35.2798C36.9067 6.70802 37.7334 7.42964 37.7334 8.8466Z" fill="white"/>
<path fill-rule="evenodd" clip-rule="evenodd" d="M52.2049 17.6248C52.4279 17.4149 52.546 17.1787 52.546 16.9032C52.546 16.7326 52.5066 16.5883 52.4541 16.4178L47.3505 5.48875C47.2324 5.23947 47.0618 5.05579 46.8388 4.92459C46.6158 4.80651 46.3796 4.74091 46.1172 4.74091C45.8548 4.74091 45.6186 4.79339 45.3956 4.92459C45.1594 5.05579 44.9889 5.25259 44.8839 5.48875L39.7932 16.4178C39.7276 16.5752 39.6882 16.7458 39.6882 16.9032C39.6882 17.1918 39.7932 17.4411 40.0294 17.6248C40.2524 17.8085 40.5279 17.9134 40.8034 17.9134C41.0134 17.9134 41.197 17.861 41.3676 17.756C41.5382 17.651 41.6694 17.4936 41.7743 17.2706L42.8897 14.804H49.3447L50.4599 17.2706C50.5517 17.4805 50.6961 17.651 50.8666 17.756C51.0372 17.861 51.234 17.9134 51.4177 17.9134C51.7194 17.9134 51.9818 17.8085 52.2049 17.6248ZM48.5575 12.9672H43.69L46.1172 7.50924L48.5575 12.9672Z" fill="white"/>
<path fill-rule="evenodd" clip-rule="evenodd" d="M61.7299 4.76703C62.0054 4.76703 62.2547 4.87199 62.4777 5.09503C62.7008 5.31807 62.8057 5.55423 62.8057 5.86911C62.8057 6.10527 62.7139 6.35456 62.5302 6.5776L58.3449 11.6813V16.785C58.3449 17.1655 58.24 17.4541 58.0169 17.6772C57.7939 17.9002 57.5184 17.9921 57.1772 17.9921C56.823 17.9921 56.5212 17.8871 56.2982 17.6772C56.0752 17.4672 55.9702 17.1786 55.9702 16.785V11.6813L51.8112 6.56448C51.6275 6.34144 51.5356 6.10527 51.5356 5.85599C51.5356 5.56735 51.6406 5.30495 51.8636 5.08191C52.0867 4.85887 52.3491 4.75391 52.6115 4.75391C52.9264 4.75391 53.1756 4.88511 53.3987 5.16063L57.1641 9.83138L60.9164 5.16063C61.1395 4.89823 61.415 4.76703 61.7299 4.76703Z" fill="white"/>
<defs>
<linearGradient id="paint0_linear_6943_23948" x1="68.8499" y1="19.302" x2="75.4778" y2="16.0886" gradientUnits="userSpaceOnUse">
<stop stop-color="#1FADC3"/>
<stop offset="0.7072" stop-color="#36B98F"/>
</linearGradient>
<linearGradient id="paint1_linear_6943_23948" x1="71.1774" y1="14.142" x2="72.4162" y2="13.9616" gradientUnits="userSpaceOnUse">
<stop stop-color="#123F06" stop-opacity="0.01"/>
<stop offset="1" stop-color="#123F06"/>
</linearGradient>
<radialGradient id="paint2_radial_6943_23948" cx="0" cy="0" r="1" gradientUnits="userSpaceOnUse" gradientTransform="translate(70.1323 13.7291) scale(3.19893 3.6559)">
<stop offset="0.4185" stop-color="#123F06" stop-opacity="0.01"/>
<stop offset="1" stop-color="#123F06"/>
</radialGradient>
<linearGradient id="paint3_linear_6943_23948" x1="64.3171" y1="12.024" x2="72.355" y2="14.8017" gradientUnits="userSpaceOnUse">
<stop stop-color="#9FDB57"/>
<stop offset="1" stop-color="#71CA5E"/>
</linearGradient>
<linearGradient id="paint4_linear_6943_23948" x1="74.9055" y1="19.3054" x2="81.5334" y2="16.0919" gradientUnits="userSpaceOnUse">
<stop stop-color="#1FADC3"/>
<stop offset="0.7072" stop-color="#36B98F"/>
</linearGradient>
<linearGradient id="paint5_linear_6943_23948" x1="77.2912" y1="14.0899" x2="78.5301" y2="13.9095" gradientUnits="userSpaceOnUse">
<stop stop-color="#123F06" stop-opacity="0.01"/>
<stop offset="1" stop-color="#123F06"/>
</linearGradient>
<radialGradient id="paint6_radial_6943_23948" cx="0" cy="0" r="1" gradientUnits="userSpaceOnUse" gradientTransform="translate(76.1858 13.7291) scale(3.19893 3.6559)">
<stop offset="0.4185" stop-color="#123F06" stop-opacity="0.01"/>
<stop offset="1" stop-color="#123F06"/>
</radialGradient>
<linearGradient id="paint7_linear_6943_23948" x1="70.3692" y1="12.0264" x2="78.4071" y2="14.8041" gradientUnits="userSpaceOnUse">
<stop stop-color="#9FDB57"/>
<stop offset="1" stop-color="#71CA5E"/>
</linearGradient>
</defs>
</svg>
