<svg width="20" height="20" viewBox="0 0 20 20" fill="none" xmlns="http://www.w3.org/2000/svg">
<path d="M7.28809 7.28778H8.50272V14.5756H7.28809V7.28778Z" fill="#8B8B8B"/>
<path d="M10.9321 7.28778H12.1468V14.5756H10.9321V7.28778Z" fill="#8B8B8B"/>
<path d="M2.4292 3.64398V4.85861H3.64383V17.0049C3.64383 17.3271 3.7718 17.636 3.99959 17.8638C4.22737 18.0916 4.53632 18.2195 4.85846 18.2195H14.5755C14.8976 18.2195 15.2066 18.0916 15.4344 17.8638C15.6622 17.636 15.7901 17.3271 15.7901 17.0049V4.85861H17.0048V3.64398H2.4292ZM4.85846 17.0049V4.85861H14.5755V17.0049H4.85846Z" fill="#8B8B8B"/>
<path d="M7.28809 1.21472H12.1466V2.42935H7.28809V1.21472Z" fill="#8B8B8B"/>
</svg>
