<svg width="16" height="16" viewBox="0 0 16 16" fill="none" xmlns="http://www.w3.org/2000/svg">
<path d="M7.36764 10.3378C7.88514 10.5425 8.35764 10.8148 8.78289 11.1534C9.20814 11.4909 9.57152 11.8846 9.87414 12.3301C10.4914 13.2291 10.8238 14.2929 10.8281 15.3834V15.875H9.84377V15.3822C9.84588 14.8004 9.73206 14.224 9.50896 13.6866C9.28587 13.1493 8.95796 12.6617 8.54439 12.2525C8.13845 11.8523 7.66108 11.5318 7.13702 11.3075C6.59236 11.0741 6.00606 10.9536 5.41352 10.9531C4.83169 10.951 4.25527 11.0648 3.71791 11.2879C3.18055 11.511 2.69302 11.8389 2.28377 12.2525C1.88371 12.6585 1.56319 13.1359 1.33877 13.6599C1.10702 14.1931 0.990018 14.768 0.984393 15.3822V15.875H1.84899e-05V15.3822C-0.00285916 14.2911 0.330223 13.2254 0.954019 12.3301C1.57535 11.4337 2.44777 10.7409 3.46164 10.3389C3.23132 10.1806 3.02158 9.99431 2.83727 9.78425C2.65514 9.57747 2.49771 9.35019 2.36814 9.107C2.23909 8.86403 2.14083 8.60591 2.07564 8.33862C2.00917 8.06634 1.97332 7.78749 1.96877 7.50725C1.96877 7.03137 2.05877 6.58475 2.23877 6.16963C2.59073 5.34716 3.24577 4.69172 4.06802 4.33925C4.49222 4.15867 4.94831 4.06493 5.40935 4.06358C5.87038 4.06223 6.32701 4.15329 6.75227 4.33137C7.57494 4.68361 8.23041 5.33908 8.58264 6.16175C8.87395 6.84677 8.93591 7.60763 8.75927 8.33075C8.69177 8.59737 8.59277 8.85387 8.46002 9.10025C8.32812 9.3441 8.17087 9.57337 7.99089 9.78425C7.81089 9.99463 7.60277 10.178 7.36764 10.3378ZM5.41352 9.96875C5.75214 9.96875 6.07052 9.90462 6.36752 9.7775C6.95637 9.52729 7.42506 9.0582 7.67477 8.46912C7.80864 8.1665 7.87502 7.84588 7.87502 7.50838C7.87646 7.18622 7.81317 6.86707 7.68891 6.56984C7.56465 6.27262 7.38195 6.00339 7.15164 5.77813C6.92385 5.556 6.65833 5.37619 6.36752 5.24713C6.06744 5.1131 5.74216 5.04482 5.41352 5.04688C5.07602 5.04688 4.75764 5.111 4.46064 5.23812C3.86854 5.49067 3.39694 5.96227 3.14439 6.55438C3.01727 6.85138 2.95314 7.16975 2.95314 7.50838C2.95314 7.84588 3.01727 8.16425 3.14439 8.46125C3.27377 8.75825 3.44814 9.02038 3.66864 9.24538C3.89691 9.47604 4.16892 9.65884 4.46873 9.78305C4.76854 9.90726 5.09013 9.9704 5.41464 9.96875H5.41352ZM15.75 0.125V8H13.7813L10.8281 10.9531V8H9.84377V7.01562H11.8125V8.57712L13.374 7.01562H14.7656V1.10938H4.92189V2.87788C4.75689 2.89872 4.59256 2.92461 4.42914 2.9555C4.26157 2.98731 4.09708 3.03361 3.93752 3.09387V0.125H15.75Z" fill="#101112"/>
</svg>
