<svg width="15" height="18" viewBox="0 0 15 18" fill="none" xmlns="http://www.w3.org/2000/svg">
<g clip-path="url(#clip0_4504_14945)">
<path d="M14.0419 8.76371C12.5417 5.66475 9.91093 3.78946 6.99969 3.78946C4.08846 3.78946 1.45321 5.66475 -0.0335632 8.76371L-0.158203 8.9975L-0.042466 9.23626C1.45766 12.3352 4.08846 14.2105 6.99969 14.2105C9.91093 14.2105 12.5462 12.3601 14.0419 9.23626L14.1576 8.9975L14.0419 8.76371ZM6.99969 13.1908C4.49354 13.1908 2.19215 11.6289 0.856722 8.9975C2.19215 6.36612 4.49354 4.80421 6.99969 4.80421C9.50585 4.80421 11.7805 6.37109 13.1382 8.9975C11.7805 11.6289 9.50139 13.1908 6.99969 13.1908Z" fill="#101112"/>
<path d="M7.04031 5.58499C6.4377 5.58994 5.8499 5.79568 5.35116 6.17623C4.85243 6.55678 4.46512 7.09507 4.23816 7.72311C4.0112 8.35115 3.95477 9.04077 4.076 9.70487C4.19722 10.369 4.49066 10.9778 4.91926 11.4544C5.34786 11.9309 5.89239 12.254 6.48407 12.3826C7.07575 12.5112 7.68805 12.4397 8.24363 12.1771C8.7992 11.9145 9.27314 11.4725 9.60558 10.907C9.93802 10.3416 10.114 9.67794 10.1114 8.99999C10.1097 8.54871 10.0288 8.10225 9.8734 7.6862C9.71801 7.27015 9.49116 6.89269 9.20586 6.57544C8.92056 6.2582 8.58242 6.00741 8.21082 5.83745C7.83921 5.66749 7.44144 5.5817 7.04031 5.58499ZM7.04031 11.445C6.61465 11.4401 6.19977 11.2937 5.84778 11.0244C5.4958 10.7551 5.2224 10.3747 5.06193 9.93116C4.90146 9.48759 4.86107 9.00057 4.94583 8.53126C5.03059 8.06196 5.23672 7.63129 5.53834 7.29335C5.83996 6.95541 6.22362 6.72526 6.64112 6.63182C7.05863 6.53838 7.49137 6.58581 7.88499 6.76815C8.27862 6.95049 8.61557 7.25961 8.85354 7.65669C9.09151 8.05377 9.21988 8.5211 9.22253 8.99999C9.22372 9.32229 9.16802 9.64165 9.05866 9.93955C8.9493 10.2374 8.78847 10.508 8.58547 10.7354C8.38248 10.9628 8.14137 11.1427 7.87613 11.2645C7.61089 11.3863 7.32679 11.4476 7.04031 11.445Z" fill="#101112"/>
</g>
<defs>
<clipPath id="clip0_4504_14945">
<rect width="15" height="18" fill="white"/>
</clipPath>
</defs>
</svg>
