<svg width="13" height="19" viewBox="0 0 13 19" fill="none" xmlns="http://www.w3.org/2000/svg">
<path fill-rule="evenodd" clip-rule="evenodd" d="M2.125 7.3125C2.125 7.19647 2.17109 7.08519 2.25314 7.00314C2.33519 6.92109 2.44647 6.875 2.5625 6.875H10.4375C10.5535 6.875 10.6648 6.92109 10.7469 7.00314C10.8289 7.08519 10.875 7.19647 10.875 7.3125V13.875C10.875 13.991 10.8289 14.1023 10.7469 14.1844C10.6648 14.2664 10.5535 14.3125 10.4375 14.3125H2.5625C2.44647 14.3125 2.33519 14.2664 2.25314 14.1844C2.17109 14.1023 2.125 13.991 2.125 13.875V7.3125ZM3 9.9375V11.25H4.75V9.9375H3ZM3 13.4375V12.125H4.75V13.4375H3ZM5.625 13.4375V12.125H7.375V13.4375H5.625ZM8.25 13.4375V12.125H10V13.4375H8.25ZM8.25 9.9375V11.25H10V9.9375H8.25ZM5.625 11.25H7.375V9.9375H5.625V11.25ZM3 9.0625H10V7.75H3V9.0625Z" fill="#101112"/>
<path fill-rule="evenodd" clip-rule="evenodd" d="M0.375 1.1875C0.375 1.07147 0.421094 0.960188 0.503141 0.878141C0.585188 0.796094 0.696468 0.75 0.8125 0.75H9.5625C9.67852 0.750025 9.78979 0.796135 9.87181 0.878188L12.4968 3.50319C12.5789 3.58522 12.625 3.69648 12.625 3.8125V17.8125C12.625 17.9285 12.5789 18.0398 12.4969 18.1219C12.4148 18.2039 12.3035 18.25 12.1875 18.25H0.8125C0.696468 18.25 0.585188 18.2039 0.503141 18.1219C0.421094 18.0398 0.375 17.9285 0.375 17.8125V1.1875ZM1.25 1.625V17.375H11.75V4.25H9.5625C9.44647 4.25 9.33519 4.20391 9.25314 4.12186C9.17109 4.03981 9.125 3.92853 9.125 3.8125V1.625H1.25ZM10 2.24363V3.375H11.1314L10 2.24363Z" fill="#101112"/>
</svg>
