<svg width="180.000000" height="80.000000" viewBox="0 0 180 80" fill="none" xmlns="http://www.w3.org/2000/svg" xmlns:xlink="http://www.w3.org/1999/xlink">
	<desc>
			Created with Pixso.
	</desc>
	<defs>
		<clipPath id="clip2066_6942">
			<rect id="visa-svgrepo-com" width="80.000000" height="80.000000" fill="white" fill-opacity="0"/>
		</clipPath>
		<clipPath id="clip2066_6944">
			<rect id="mastercard-old-1-svgrepo-com 1" width="80.000000" height="80.000000" transform="translate(100.000000 0.000000)" fill="white" fill-opacity="0"/>
		</clipPath>
	</defs>
	<rect id="visa-svgrepo-com" width="80.000000" height="80.000000" fill="#FFFFFF" fill-opacity="0"/>
	<g clip-path="url(#clip2066_6942)">
		<path id="Vector" d="M55.12 30.61C53.58 30.05 51.94 29.77 50.29 29.78C44.96 29.78 41.19 32.47 41.16 36.32C41.13 39.16 43.84 40.75 45.89 41.7C47.99 42.67 48.7 43.29 48.69 44.16C48.67 45.48 47.01 46.08 45.46 46.08C43.33 46.08 42.16 45.78 40.37 45.04L39.71 44.73L38.96 49.17C40.25 49.71 42.59 50.17 45 50.21C50.67 50.21 54.38 47.54 54.42 43.44C54.47 41.17 53 39.47 49.91 38.05C48.04 37.14 46.87 36.52 46.87 35.59C46.87 34.77 47.87 33.89 49.96 33.89C51.34 33.85 52.72 34.11 54 34.65L54.5 34.87L55.25 30.59L55.12 30.61ZM68.96 30.14L64.8 30.14C63.5 30.14 62.53 30.49 61.96 31.78L53.95 49.93L59.62 49.93L60.75 46.96L67.67 46.97C67.83 47.66 68.33 49.93 68.33 49.93L73.33 49.93L68.96 30.14ZM33.49 29.97L38.9 29.97L35.52 49.78L30.12 49.78L33.49 29.97L33.49 29.97ZM19.78 40.89L20.33 43.64L25.62 30.14L31.34 30.14L22.83 49.91L17.12 49.91L12.46 33.17C12.38 32.89 12.21 32.66 11.96 32.5C10.28 31.64 8.5 30.98 6.66 30.54L6.73 30.12L15.42 30.12C16.61 30.17 17.56 30.54 17.87 31.8L19.77 40.9L19.78 40.89ZM62.3 42.91L64.45 37.37C64.42 37.43 64.9 36.23 65.17 35.48L65.54 37.19L66.79 42.91L62.29 42.91L62.3 42.91Z" fill="#2C2727" fill-opacity="1.000000" fill-rule="nonzero"/>
	</g>
	<rect id="mastercard-old-1-svgrepo-com 1" width="80.000000" height="80.000000" transform="translate(100.000000 0.000000)" fill="#FFFFFF" fill-opacity="0"/>
	<g clip-path="url(#clip2066_6944)">
		<path id="Rectangle-1" d="M105.64 17.88C104.22 17.88 103.07 19.01 103.07 20.39L103.07 59.6C103.07 60.98 104.22 62.11 105.64 62.11L174.35 62.11C175.77 62.11 176.92 60.98 176.92 59.6L176.92 20.39C176.92 19.01 175.77 17.88 174.35 17.88L105.64 17.88ZM105.64 14.88L174.35 14.88C177.47 14.88 180 17.34 180 20.39L180 59.6C180 62.65 177.47 65.12 174.35 65.12L105.64 65.12C102.52 65.12 100 62.65 100 59.6L100 20.39C100 17.34 102.52 14.88 105.64 14.88Z" fill="#393939" fill-opacity="0" fill-rule="nonzero"/>
		<path id="path14-path" d="M173.49 39.96C173.49 51.4 164.16 60.71 152.7 60.71C147.92 60.71 143.51 59.08 139.99 56.37C136.48 59.08 132.07 60.71 127.29 60.71C115.83 60.71 106.5 51.4 106.5 39.96C106.5 28.52 115.83 19.21 127.29 19.21C132.07 19.21 136.48 20.83 139.99 23.55C143.51 20.83 147.92 19.21 152.7 19.21C164.16 19.21 173.49 28.52 173.49 39.96ZM152.67 21.05C148.45 21.05 144.56 22.43 141.41 24.75C144.27 27.4 146.38 30.84 147.38 34.72L145.46 34.72C144.47 31.29 142.54 28.27 139.96 25.94C137.39 28.27 135.46 31.29 134.48 34.72L132.55 34.72C133.56 30.84 135.67 27.4 138.52 24.75C135.37 22.43 131.48 21.05 127.26 21.05C116.81 21.05 108.34 29.5 108.34 39.94C108.34 50.37 116.81 58.83 127.26 58.83C131.48 58.83 135.37 57.45 138.52 55.12C135.83 52.63 133.81 49.43 132.74 45.83L134.69 45.83C135.72 48.98 137.56 51.76 139.96 53.94C142.37 51.76 144.21 48.98 145.24 45.83L147.19 45.83C146.12 49.43 144.1 52.63 141.41 55.12C144.56 57.45 148.45 58.83 152.67 58.83C163.12 58.83 171.59 50.37 171.59 39.94C171.59 29.5 163.12 21.05 152.67 21.05Z" fill="#2C2727" fill-opacity="1.000000" fill-rule="nonzero"/>
		<path id="path14-path" d="M152.7 60.71C147.92 60.71 143.51 59.08 139.99 56.37C136.48 59.08 132.07 60.71 127.29 60.71C115.83 60.71 106.5 51.4 106.5 39.96C106.5 28.52 115.83 19.21 127.29 19.21C132.07 19.21 136.48 20.83 139.99 23.55C143.51 20.83 147.92 19.21 152.7 19.21C164.16 19.21 173.49 28.52 173.49 39.96C173.49 51.4 164.16 60.71 152.7 60.71ZM141.41 24.75C144.27 27.4 146.38 30.84 147.38 34.72L145.46 34.72C144.47 31.29 142.54 28.27 139.96 25.94C137.39 28.27 135.46 31.29 134.48 34.72L132.55 34.72C133.56 30.84 135.67 27.4 138.52 24.75C135.37 22.43 131.48 21.05 127.26 21.05C116.81 21.05 108.34 29.5 108.34 39.94C108.34 50.37 116.81 58.83 127.26 58.83C131.48 58.83 135.37 57.45 138.52 55.12C135.83 52.63 133.81 49.43 132.74 45.83L134.69 45.83C135.72 48.98 137.56 51.76 139.96 53.94C142.37 51.76 144.21 48.98 145.24 45.83L147.19 45.83C146.12 49.43 144.1 52.63 141.41 55.12C144.56 57.45 148.45 58.83 152.67 58.83C163.12 58.83 171.59 50.37 171.59 39.94C171.59 29.5 163.12 21.05 152.67 21.05C148.45 21.05 144.56 22.43 141.41 24.75Z" stroke="#979797" stroke-opacity="0" stroke-width="1.066667"/>
		<path id="path13" d="M119.61 35.4L116.58 35.4L114.68 41.04L114.6 35.4L111.8 35.4L110.27 44.51L112.1 44.51L113.27 37.55L113.44 44.51L114.77 44.51L117.26 37.51L116.14 44.51L118.1 44.51L119.61 35.4Z" fill="#2C2727" fill-opacity="1.000000" fill-rule="nonzero"/>
		<path id="path15" d="M124.64 44.5L123.02 44.5L123.06 43.73C122.56 44.33 121.91 44.62 121.01 44.62C119.95 44.62 119.23 43.8 119.23 42.6C119.23 40.8 120.49 39.75 122.65 39.75C122.88 39.75 123.16 39.77 123.45 39.81C123.51 39.56 123.53 39.46 123.53 39.33C123.53 38.84 123.19 38.65 122.27 38.65C121.32 38.64 120.53 38.88 120.21 38.99C120.23 38.86 120.48 37.32 120.48 37.32C121.45 37.04 122.09 36.93 122.82 36.93C124.49 36.93 125.38 37.68 125.38 39.1C125.38 39.48 125.32 39.95 125.22 40.57C125.05 41.64 124.69 43.94 124.64 44.5ZM123.27 41.23C123.06 41.21 122.97 41.2 122.83 41.2C121.72 41.2 121.16 41.58 121.16 42.33C121.16 42.79 121.44 43.08 121.86 43.08C122.66 43.08 123.23 42.33 123.27 41.23Z" fill="#2C2727" fill-opacity="1.000000" fill-rule="nonzero"/>
		<path id="path17" d="M150.2 35.2C147.61 35.2 145.8 37.47 145.8 40.72C145.8 43.14 147.11 44.65 149.21 44.65C149.75 44.65 150.22 44.58 150.93 44.38L151.28 42.31C150.63 42.63 150.1 42.78 149.62 42.78C148.48 42.78 147.8 41.94 147.8 40.56C147.8 38.56 148.82 37.15 150.28 37.15C150.82 37.15 151.32 37.29 152.02 37.64L152.34 35.67C152.05 35.56 151.05 35.2 150.2 35.2Z" fill="#2C2727" fill-opacity="1.000000" fill-rule="nonzero"/>
		<path id="path19" d="M157.22 44.5L155.6 44.5L155.64 43.73C155.14 44.33 154.48 44.62 153.59 44.62C152.53 44.62 151.81 43.8 151.81 42.6C151.81 40.8 153.07 39.75 155.23 39.75C155.46 39.75 155.74 39.77 156.03 39.81C156.09 39.56 156.1 39.46 156.1 39.33C156.1 38.84 155.77 38.65 154.86 38.65C153.9 38.64 153.11 38.88 152.79 38.99C152.81 38.86 153.06 37.32 153.06 37.32C154.03 37.04 154.67 36.93 155.39 36.93C157.07 36.93 157.96 37.68 157.96 39.1C157.96 39.48 157.9 39.95 157.8 40.57C157.63 41.64 157.27 43.94 157.22 44.5ZM155.85 41.23C155.64 41.21 155.55 41.2 155.41 41.2C154.3 41.2 153.74 41.58 153.74 42.33C153.74 42.79 154.02 43.08 154.44 43.08C155.24 43.08 155.81 42.33 155.85 41.23Z" fill="#2C2727" fill-opacity="1.000000" fill-rule="nonzero"/>
		<path id="path21" d="M134.24 42.78C134.11 42.83 133.94 42.85 133.72 42.85C133.25 42.85 133.05 42.69 133.05 42.3C133.05 42.07 133.37 40.32 133.6 38.91L134.6 38.91L134.86 37.13L133.87 37.13L134.09 36.01L132.15 36.01C132.15 36.01 131.42 40.37 131.31 41.06C131.18 41.85 131.03 42.71 131.04 43.03C131.04 44.09 131.58 44.66 132.58 44.66C133.03 44.66 133.45 44.59 133.98 44.42L134.24 42.78Z" fill="#2C2727" fill-opacity="1.000000" fill-rule="nonzero"/>
		<path id="path23" d="M140.21 44.33C139.54 44.53 138.89 44.62 138.21 44.62C136.04 44.62 134.91 43.49 134.91 41.32C134.91 38.79 136.35 36.93 138.31 36.93C139.9 36.93 140.93 37.97 140.93 39.61C140.93 40.15 140.85 40.68 140.69 41.43L136.82 41.43C136.69 42.5 137.38 42.95 138.51 42.95C139.21 42.95 139.83 42.81 140.53 42.48L140.21 44.33ZM139.19 39.98C139.2 39.83 139.39 38.66 138.28 38.66C137.67 38.66 137.22 39.13 137.05 39.98L139.19 39.98Z" fill="#2C2727" fill-opacity="1.000000" fill-rule="nonzero"/>
		<path id="path25" d="M126.18 39.43C126.18 40.37 126.63 41.01 127.67 41.5C128.46 41.87 128.58 41.98 128.58 42.32C128.58 42.78 128.23 42.99 127.46 42.99C126.88 42.99 126.33 42.9 125.71 42.7C125.71 42.7 125.45 44.33 125.44 44.41C125.89 44.5 126.28 44.59 127.47 44.62C129.53 44.62 130.48 43.84 130.48 42.15C130.48 41.13 130.09 40.54 129.11 40.09C128.29 39.71 128.19 39.63 128.19 39.28C128.19 38.88 128.52 38.68 129.15 38.68C129.53 38.68 130.06 38.72 130.55 38.79L130.83 37.07C130.32 36.99 129.56 36.93 129.11 36.93C126.93 36.93 126.17 38.06 126.18 39.43Z" fill="#2C2727" fill-opacity="1.000000" fill-rule="nonzero"/>
		<path id="path27" d="M168.2 44.51L166.36 44.51L166.45 43.82C165.91 44.39 165.36 44.63 164.65 44.63C163.23 44.63 162.29 43.41 162.29 41.56C162.29 39.1 163.75 37.02 165.47 37.02C166.22 37.02 166.8 37.33 167.33 38.03L167.76 35.4L169.69 35.4L168.2 44.51ZM165.33 42.81C166.24 42.81 166.88 41.78 166.88 40.31C166.88 39.37 166.52 38.86 165.84 38.86C164.96 38.86 164.33 39.89 164.33 41.35C164.33 42.32 164.66 42.81 165.33 42.81Z" fill="#2C2727" fill-opacity="1.000000" fill-rule="nonzero"/>
		<path id="path29" d="M159.33 37.11C159.08 39.4 158.65 41.72 158.31 44.01L158.22 44.51L160.17 44.51C160.87 39.99 161.04 39.1 162.13 39.21C162.31 38.28 162.63 37.47 162.87 37.06C162.06 36.89 161.6 37.36 161 38.23C161.05 37.85 161.14 37.49 161.12 37.11L159.33 37.11Z" fill="#2C2727" fill-opacity="1.000000" fill-rule="nonzero"/>
		<path id="path31" d="M142.23 37.11C141.98 39.4 141.55 41.72 141.21 44.01L141.12 44.51L143.07 44.51C143.77 39.99 143.94 39.1 145.03 39.21C145.21 38.28 145.53 37.47 145.77 37.06C144.96 36.89 144.5 37.36 143.9 38.23C143.95 37.85 144.03 37.49 144.02 37.11L142.23 37.11Z" fill="#2C2727" fill-opacity="1.000000" fill-rule="nonzero"/>
	</g>
</svg>
