<svg width="180" height="80" viewBox="0 0 180 80" fill="none" xmlns="http://www.w3.org/2000/svg">
<path d="M55.1302 30.6199C53.5806 30.0553 51.9427 29.772 50.2935 29.7833C44.9602 29.7833 41.1935 32.4699 41.1668 36.3266C41.1335 39.1599 43.8435 40.7566 45.8935 41.7033C47.9968 42.6766 48.7002 43.29 48.6935 44.16C48.6802 45.4833 47.0135 46.0833 45.4635 46.0833C43.3335 46.0833 42.1702 45.7866 40.3802 45.0433L39.7168 44.7333L38.9602 49.1733C40.2568 49.7133 42.5935 50.1766 45.0068 50.2166C50.6768 50.2166 54.3835 47.5466 54.4268 43.4433C54.4735 41.18 53.0068 39.4699 49.9202 38.0566C48.0435 37.1399 46.8802 36.5266 46.8802 35.5966C46.8802 34.7733 47.8768 33.8933 49.9602 33.8933C51.3467 33.8597 52.7246 34.1199 54.0035 34.6566L54.5035 34.8799L55.2602 30.5899L55.1302 30.6199ZM68.9702 30.1433H64.8035C63.5068 30.1433 62.5302 30.5 61.9635 31.7866L53.9502 49.94H59.6202L60.7535 46.9633L67.6735 46.9699C67.8368 47.6666 68.3368 49.94 68.3368 49.94H73.3368L68.9702 30.1433ZM33.4968 29.9766H38.9002L35.5202 49.7833H30.1235L33.4968 29.97V29.9766ZM19.7802 40.8933L20.3402 43.6433L25.6202 30.1433H31.3435L22.8402 49.9133H17.1302L12.4635 33.1733C12.3879 32.8973 12.2104 32.6602 11.9668 32.51C10.2848 31.6411 8.50264 30.9817 6.66016 30.5466L6.73349 30.1299H15.4302C16.6102 30.1766 17.5602 30.5466 17.8768 31.8066L19.7768 40.9033L19.7802 40.8933ZM62.3035 42.9133L64.4568 37.3733C64.4302 37.4333 64.9002 36.2299 65.1735 35.4866L65.5435 37.1966L66.7935 42.91H62.3002L62.3035 42.9133Z" fill="white"/>
<g clip-path="url(#clip0_2055_2905)">
<path d="M173.49 39.9635C173.49 51.4023 164.165 60.7116 152.702 60.7116C147.921 60.7116 143.514 59.0886 139.998 56.3746C136.484 59.0886 132.077 60.7116 127.296 60.7116C115.834 60.7116 106.509 51.4023 106.509 39.9635C106.509 28.5242 115.834 19.2194 127.296 19.2194C132.077 19.2194 136.484 20.8362 139.998 23.5543C143.514 20.8362 147.921 19.2194 152.702 19.2194C164.165 19.2194 173.49 28.5242 173.49 39.9635ZM152.672 21.0518C148.456 21.0518 144.563 22.4306 141.418 24.7572C144.27 27.4065 146.38 30.8469 147.388 34.724H145.461C144.474 31.2962 142.545 28.27 139.968 25.941C137.395 28.27 135.464 31.2962 134.48 34.724H132.551C133.561 30.8469 135.671 27.4065 138.523 24.7572C135.376 22.4306 131.485 21.0518 127.266 21.0518C116.814 21.0518 108.341 29.5076 108.341 39.9409C108.341 50.3715 116.814 58.83 127.266 58.83C131.485 58.83 135.376 57.4513 138.523 55.1247C135.839 52.6301 133.814 49.434 132.744 45.8363H134.692C135.727 48.9865 137.564 51.7669 139.968 53.9406C142.375 51.7669 144.215 48.9865 145.249 45.8363H147.197C146.125 49.434 144.101 52.6301 141.418 55.1247C144.563 57.4513 148.456 58.83 152.672 58.83C163.124 58.83 171.597 50.3715 171.597 39.9409C171.597 29.5076 163.124 21.0518 152.672 21.0518Z" fill="white"/>
<path d="M119.611 35.4061H116.581L114.687 41.0408L114.608 35.4061H111.8L110.275 44.5101H112.103L113.277 37.5548L113.441 44.5101H114.772L117.267 37.5132L116.149 44.5101H118.101L119.611 35.4061Z" fill="white"/>
<path d="M124.641 44.5012H123.024L123.061 43.7332C122.567 44.3397 121.91 44.6299 121.016 44.6299C119.956 44.6299 119.234 43.8039 119.234 42.6093C119.234 40.8041 120.493 39.7547 122.659 39.7547C122.881 39.7547 123.165 39.7753 123.455 39.8125C123.515 39.5661 123.53 39.4627 123.53 39.3302C123.53 38.8417 123.192 38.6574 122.279 38.6574C121.325 38.6449 120.537 38.8832 120.213 38.9907C120.234 38.8665 120.485 37.3264 120.485 37.3264C121.456 37.0408 122.098 36.9331 122.82 36.9331C124.496 36.9331 125.384 37.6824 125.382 39.1026C125.384 39.4834 125.322 39.9532 125.224 40.5725C125.054 41.6424 124.691 43.9403 124.641 44.5012ZM123.27 41.2379C123.065 41.217 122.975 41.2088 122.834 41.2088C121.727 41.2088 121.169 41.5873 121.169 42.3328C121.169 42.7946 121.442 43.0884 121.866 43.0884C122.662 43.0884 123.235 42.3328 123.27 41.2379Z" fill="white"/>
<path d="M150.2 35.2025C147.614 35.2025 145.805 37.4754 145.805 40.7299C145.805 43.1474 147.114 44.6588 149.215 44.6588C149.754 44.6588 150.221 44.5881 150.939 44.3896L151.281 42.3173C150.636 42.6342 150.105 42.7851 149.623 42.7851C148.489 42.7851 147.804 41.9488 147.804 40.5679C147.804 38.5621 148.823 37.1564 150.281 37.1564C150.822 37.1564 151.328 37.2973 152.025 37.6493L152.345 35.6745C152.059 35.5628 151.053 35.2025 150.2 35.2025Z" fill="white"/>
<path d="M157.221 44.5012H155.606L155.643 43.7332C155.147 44.3397 154.488 44.6299 153.595 44.6299C152.538 44.6299 151.812 43.8039 151.812 42.6093C151.812 40.8041 153.075 39.7547 155.238 39.7547C155.46 39.7547 155.744 39.7753 156.035 39.8125C156.095 39.5661 156.11 39.4627 156.11 39.3302C156.11 38.8417 155.771 38.6574 154.861 38.6574C153.905 38.6449 153.119 38.8832 152.795 38.9907C152.813 38.8665 153.065 37.3264 153.065 37.3264C154.037 37.0408 154.68 36.9331 155.398 36.9331C157.076 36.9331 157.964 37.6824 157.962 39.1026C157.966 39.4834 157.902 39.9532 157.804 40.5725C157.636 41.6424 157.271 43.9403 157.221 44.5012ZM155.849 41.2379C155.646 41.217 155.555 41.2088 155.411 41.2088C154.306 41.2088 153.746 41.5873 153.746 42.3328C153.746 42.7946 154.02 43.0884 154.447 43.0884C155.242 43.0884 155.816 42.3328 155.849 41.2379Z" fill="white"/>
<path d="M134.246 42.7857C134.116 42.8316 133.943 42.8561 133.722 42.8561C133.257 42.8561 133.052 42.6907 133.052 42.3075C133.056 42.0718 133.377 40.3204 133.602 38.9147H134.603L134.869 37.1343H133.871L134.097 36.017H132.157C132.157 36.017 131.423 40.3743 131.313 41.0636C131.189 41.8524 131.031 42.7114 131.044 43.0383C131.044 44.0922 131.587 44.6658 132.585 44.6658C133.037 44.6658 133.454 44.5909 133.99 44.4255L134.246 42.7857Z" fill="white"/>
<path d="M140.21 44.3316C139.542 44.5347 138.898 44.6299 138.218 44.6299C136.044 44.6254 134.912 43.4933 134.912 41.3259C134.912 38.7961 136.354 36.9331 138.31 36.9331C139.909 36.9331 140.932 37.9743 140.932 39.6138C140.932 40.1561 140.859 40.684 140.691 41.4357H136.829C136.698 42.5056 137.387 42.9529 138.515 42.9529C139.21 42.9529 139.834 42.812 140.531 42.4892L140.21 44.3316ZM139.192 39.9889C139.205 39.8357 139.398 38.6638 138.29 38.6638C137.672 38.6638 137.228 39.1379 137.05 39.9889H139.192Z" fill="white"/>
<path d="M126.187 39.4379C126.187 40.3758 126.639 41.0195 127.672 41.506C128.462 41.8785 128.585 41.986 128.585 42.3239C128.585 42.783 128.236 42.9901 127.462 42.9901C126.882 42.9901 126.338 42.903 125.714 42.7005C125.714 42.7005 125.457 44.3316 125.444 44.4105C125.89 44.5057 126.284 44.5964 127.477 44.6299C129.537 44.6299 130.487 43.8451 130.487 42.1559C130.487 41.1356 130.09 40.5435 129.111 40.0939C128.294 39.7173 128.199 39.6345 128.199 39.2888C128.199 38.8871 128.525 38.6842 129.157 38.6842C129.539 38.6842 130.063 38.7258 130.557 38.7961L130.835 37.078C130.329 36.9993 129.564 36.9331 129.118 36.9331C126.934 36.9331 126.179 38.0695 126.187 39.4379Z" fill="white"/>
<path d="M168.208 44.5101H166.36L166.453 43.821C165.916 44.3904 165.367 44.6388 164.653 44.6388C163.234 44.6388 162.297 43.4194 162.297 41.5688C162.297 39.103 163.75 37.0289 165.472 37.0289C166.227 37.0289 166.804 37.3353 167.337 38.0371L167.768 35.4061H169.694L168.208 44.5101ZM165.333 42.8133C166.241 42.8133 166.882 41.7842 166.882 40.3186C166.882 39.3768 166.52 38.8674 165.847 38.8674C164.961 38.8674 164.333 39.8963 164.333 41.3517C164.333 42.3225 164.669 42.8133 165.333 42.8133Z" fill="white"/>
<path d="M159.33 37.1149C159.086 39.4046 158.652 41.725 158.314 44.0189L158.225 44.5176H160.175C160.874 39.9905 161.043 39.1065 162.137 39.2182C162.31 38.2886 162.634 37.4796 162.879 37.0697C162.06 36.8996 161.603 37.3635 161.009 38.2392C161.056 37.8582 161.141 37.4917 161.122 37.1149H159.33Z" fill="white"/>
<path d="M142.23 37.1149C141.985 39.4046 141.55 41.725 141.211 44.0189L141.122 44.5176H143.074C143.773 39.9905 143.941 39.1065 145.034 39.2182C145.21 38.2886 145.536 37.4796 145.777 37.0697C144.961 36.8996 144.501 37.3635 143.906 38.2392C143.953 37.8582 144.038 37.4917 144.022 37.1149H142.23Z" fill="white"/>
</g>
<defs>
<clipPath id="clip0_2055_2905">
<rect width="80" height="80" fill="white" transform="translate(100)"/>
</clipPath>
</defs>
</svg>
