<svg width="24" height="24" viewBox="0 0 24 24" fill="none" xmlns="http://www.w3.org/2000/svg">
<path d="M5 4V3V4ZM9 4L9.92848 3.62861C9.77661 3.24895 9.4089 3 9 3V4ZM11 9L11.5145 9.85749C11.9354 9.60497 12.1108 9.08432 11.9285 8.62861L11 9ZM8.5 10.5L7.9855 9.64251C7.53924 9.91027 7.37294 10.4756 7.60314 10.9423L8.5 10.5ZM13.5 15.5L13.0577 16.3969C13.5244 16.6271 14.0897 16.4608 14.3575 16.0145L13.5 15.5ZM15 13L15.3714 12.0715C14.9157 11.8892 14.395 12.0646 14.1425 12.4855L15 13ZM20 15H21C21 14.5911 20.751 14.2234 20.3714 14.0715L20 15ZM18 21L17.9393 21.9982C17.9595 21.9994 17.9798 22 18 22V21ZM3 6H2C2 6.02023 2.00061 6.04046 2.00184 6.06066L3 6ZM5 5H9V3H5V5ZM8.07152 4.37139L10.0715 9.37139L11.9285 8.62861L9.92848 3.62861L8.07152 4.37139ZM10.4855 8.14251L7.9855 9.64251L9.0145 11.3575L11.5145 9.85749L10.4855 8.14251ZM7.60314 10.9423C8.77146 13.3113 10.6887 15.2285 13.0577 16.3969L13.9423 14.6031C11.9682 13.6295 10.3705 12.0318 9.39686 10.0577L7.60314 10.9423ZM14.3575 16.0145L15.8575 13.5145L14.1425 12.4855L12.6425 14.9855L14.3575 16.0145ZM14.6286 13.9285L19.6286 15.9285L20.3714 14.0715L15.3714 12.0715L14.6286 13.9285ZM19 15V19H21V15H19ZM19 19C19 19.2652 18.8946 19.5196 18.7071 19.7071L20.1213 21.1213C20.6839 20.5587 21 19.7957 21 19H19ZM18.7071 19.7071C18.5196 19.8946 18.2652 20 18 20V22C18.7957 22 19.5587 21.6839 20.1213 21.1213L18.7071 19.7071ZM18.0607 20.0018C14.4037 19.7796 10.9546 18.2267 8.36394 15.6361L6.94972 17.0503C9.88576 19.9863 13.7948 21.7463 17.9393 21.9982L18.0607 20.0018ZM8.36394 15.6361C5.77332 13.0454 4.22039 9.59628 3.99816 5.93934L2.00184 6.06066C2.25371 10.2052 4.01369 14.1142 6.94972 17.0503L8.36394 15.6361ZM4 6C4 5.73478 4.10536 5.48043 4.29289 5.29289L2.87868 3.87868C2.31607 4.44129 2 5.20435 2 6H4ZM4.29289 5.29289C4.48043 5.10536 4.73478 5 5 5V3C4.20435 3 3.44129 3.31607 2.87868 3.87868L4.29289 5.29289Z" fill="white"/>
</svg>
