<svg width="19" height="20" viewBox="0 0 19 20" fill="none" xmlns="http://www.w3.org/2000/svg">
<path d="M3.71484 5.30939H16.191C16.4438 5.3094 16.6938 5.36517 16.9249 5.4731C17.1559 5.58103 17.363 5.73874 17.5326 5.93604C17.7022 6.13335 17.8307 6.36588 17.9097 6.61865C17.9887 6.87141 18.0166 7.13881 17.9914 7.40359L17.4486 13.1176C17.4039 13.5876 17.195 14.0234 16.8623 14.3403C16.5296 14.6573 16.0969 14.8328 15.6482 14.8328H7.00804C6.58958 14.833 6.184 14.6805 5.86035 14.4013C5.5367 14.122 5.31499 13.7334 5.23297 13.3014L3.71484 5.30939Z" stroke="white" stroke-width="2" stroke-linejoin="round"/>
<path d="M3.71418 5.30937L2.98135 2.22092C2.93234 2.01498 2.81936 1.83219 2.66036 1.70157C2.50136 1.57095 2.30545 1.50001 2.10376 1.5H1" stroke="white" stroke-width="2" stroke-linecap="round" stroke-linejoin="round"/>
<path d="M6.42773 18.6422H8.23718" stroke="white" stroke-width="2" stroke-linecap="round" stroke-linejoin="round"/>
<path d="M13.668 18.6421H15.4774" stroke="white" stroke-width="2" stroke-linecap="round" stroke-linejoin="round"/>
</svg>
