<svg width="11" height="15" viewBox="0 0 11 15" fill="none" xmlns="http://www.w3.org/2000/svg">
<path fill-rule="evenodd" clip-rule="evenodd" d="M1.93555 5.99893C1.93555 5.9095 1.97107 5.82374 2.03431 5.7605C2.09754 5.69727 2.1833 5.66174 2.27273 5.66174H8.34206C8.43149 5.66174 8.51725 5.69727 8.58048 5.7605C8.64372 5.82374 8.67924 5.9095 8.67924 5.99893V11.0567C8.67924 11.1461 8.64372 11.2319 8.58048 11.2951C8.51725 11.3584 8.43149 11.3939 8.34206 11.3939H2.27273C2.1833 11.3939 2.09754 11.3584 2.03431 11.2951C1.97107 11.2319 1.93555 11.1461 1.93555 11.0567V5.99893ZM2.60992 8.02204V9.03359H3.95866V8.02204H2.60992ZM2.60992 10.7195V9.70796H3.95866V10.7195H2.60992ZM4.63303 10.7195V9.70796H5.98176V10.7195H4.63303ZM6.65613 10.7195V9.70796H8.00487V10.7195H6.65613ZM6.65613 8.02204V9.03359H8.00487V8.02204H6.65613ZM4.63303 9.03359H5.98176V8.02204H4.63303V9.03359ZM2.60992 7.34767H8.00487V6.33611H2.60992V7.34767Z" fill="#101112"/>
<path fill-rule="evenodd" clip-rule="evenodd" d="M0.587891 1.27835C0.587891 1.18892 0.623415 1.10316 0.68665 1.03992C0.749884 0.976687 0.835649 0.941162 0.925076 0.941162H7.66877C7.75819 0.941181 7.84394 0.976719 7.90716 1.03996L9.93027 3.06307C9.99351 3.12629 10.029 3.21204 10.0291 3.30146V14.0914C10.0291 14.1808 9.99354 14.2666 9.93031 14.3298C9.86707 14.393 9.78131 14.4286 9.69188 14.4286H0.925076C0.835649 14.4286 0.749884 14.393 0.68665 14.3298C0.623415 14.2666 0.587891 14.1808 0.587891 14.0914V1.27835ZM1.26226 1.61553V13.7542H9.3547V3.63864H7.66877C7.57935 3.63864 7.49358 3.60312 7.43035 3.53988C7.36711 3.47665 7.33159 3.39088 7.33159 3.30146V1.61553H1.26226ZM8.00596 2.09231V2.96427H8.87792L8.00596 2.09231Z" fill="#101112"/>
</svg>
